<mxfile host="Electron" modified="2024-06-03T16:45:53.868Z" agent="Mozilla/5.0 (Windows NT 10.0; Win64; x64) AppleWebKit/537.36 (KHTML, like Gecko) draw.io/24.1.0 Chrome/120.0.6099.109 Electron/28.1.0 Safari/537.36" etag="gvPAizyIBhuTtSGYH4_J" version="24.1.0" type="device">
  <diagram name="Страница — 1" id="GUuqKbN-eFberujvc9VG">
    <mxGraphModel dx="4412" dy="4448" grid="1" gridSize="10" guides="1" tooltips="1" connect="1" arrows="1" fold="1" page="1" pageScale="1" pageWidth="827" pageHeight="1169" math="0" shadow="0">
      <root>
        <mxCell id="0" />
        <mxCell id="1" parent="0" />
        <mxCell id="Ib7XOItrtZM7JdyORI7V-115" style="edgeStyle=orthogonalEdgeStyle;rounded=0;orthogonalLoop=1;jettySize=auto;html=1;entryX=0.5;entryY=0;entryDx=0;entryDy=0;dashed=1;dashPattern=8 8;" edge="1" parent="1" source="Ib7XOItrtZM7JdyORI7V-1" target="Ib7XOItrtZM7JdyORI7V-59">
          <mxGeometry relative="1" as="geometry" />
        </mxCell>
        <mxCell id="Ib7XOItrtZM7JdyORI7V-116" style="edgeStyle=orthogonalEdgeStyle;rounded=0;orthogonalLoop=1;jettySize=auto;html=1;exitX=0.5;exitY=1;exitDx=0;exitDy=0;entryX=0.5;entryY=0;entryDx=0;entryDy=0;dashed=1;dashPattern=8 8;" edge="1" parent="1" source="Ib7XOItrtZM7JdyORI7V-1" target="Ib7XOItrtZM7JdyORI7V-70">
          <mxGeometry relative="1" as="geometry" />
        </mxCell>
        <mxCell id="Ib7XOItrtZM7JdyORI7V-117" style="edgeStyle=orthogonalEdgeStyle;rounded=0;orthogonalLoop=1;jettySize=auto;html=1;entryX=0.553;entryY=-0.015;entryDx=0;entryDy=0;entryPerimeter=0;dashed=1;dashPattern=8 8;" edge="1" parent="1" source="Ib7XOItrtZM7JdyORI7V-1" target="Ib7XOItrtZM7JdyORI7V-79">
          <mxGeometry relative="1" as="geometry">
            <Array as="points">
              <mxPoint x="565" y="-220" />
              <mxPoint x="565" y="-220" />
            </Array>
          </mxGeometry>
        </mxCell>
        <mxCell id="Ib7XOItrtZM7JdyORI7V-118" style="edgeStyle=orthogonalEdgeStyle;rounded=0;orthogonalLoop=1;jettySize=auto;html=1;entryX=0.5;entryY=0;entryDx=0;entryDy=0;dashed=1;dashPattern=8 8;" edge="1" parent="1" source="Ib7XOItrtZM7JdyORI7V-1" target="Ib7XOItrtZM7JdyORI7V-88">
          <mxGeometry relative="1" as="geometry" />
        </mxCell>
        <mxCell id="Ib7XOItrtZM7JdyORI7V-119" style="edgeStyle=orthogonalEdgeStyle;rounded=0;orthogonalLoop=1;jettySize=auto;html=1;entryX=0.5;entryY=0;entryDx=0;entryDy=0;dashed=1;dashPattern=8 8;" edge="1" parent="1" source="Ib7XOItrtZM7JdyORI7V-1" target="Ib7XOItrtZM7JdyORI7V-95">
          <mxGeometry relative="1" as="geometry" />
        </mxCell>
        <mxCell id="Ib7XOItrtZM7JdyORI7V-1" value="Trio33pContext" style="swimlane;fontStyle=2;align=center;verticalAlign=top;childLayout=stackLayout;horizontal=1;startSize=26;horizontalStack=0;resizeParent=1;resizeLast=0;collapsible=1;marginBottom=0;rounded=0;shadow=0;strokeWidth=1;" vertex="1" parent="1">
          <mxGeometry x="440" y="-580" width="250" height="280" as="geometry">
            <mxRectangle x="220" y="120" width="160" height="26" as="alternateBounds" />
          </mxGeometry>
        </mxCell>
        <mxCell id="Ib7XOItrtZM7JdyORI7V-2" value="+ Histories:&amp;nbsp;DbSet&amp;lt;History&amp;gt;&amp;nbsp;" style="text;strokeColor=none;fillColor=none;align=left;verticalAlign=top;spacingLeft=4;spacingRight=4;overflow=hidden;rotatable=0;points=[[0,0.5],[1,0.5]];portConstraint=eastwest;whiteSpace=wrap;html=1;" vertex="1" parent="Ib7XOItrtZM7JdyORI7V-1">
          <mxGeometry y="26" width="250" height="26" as="geometry" />
        </mxCell>
        <mxCell id="Ib7XOItrtZM7JdyORI7V-52" value="+ Roles:&amp;nbsp;DbSet&amp;lt;Role&amp;gt;&amp;nbsp;" style="text;strokeColor=none;fillColor=none;align=left;verticalAlign=top;spacingLeft=4;spacingRight=4;overflow=hidden;rotatable=0;points=[[0,0.5],[1,0.5]];portConstraint=eastwest;whiteSpace=wrap;html=1;" vertex="1" parent="Ib7XOItrtZM7JdyORI7V-1">
          <mxGeometry y="52" width="250" height="26" as="geometry" />
        </mxCell>
        <mxCell id="Ib7XOItrtZM7JdyORI7V-53" value="+ Simulators:&amp;nbsp;DbSet&amp;lt;Simulator&amp;gt;&amp;nbsp;" style="text;strokeColor=none;fillColor=none;align=left;verticalAlign=top;spacingLeft=4;spacingRight=4;overflow=hidden;rotatable=0;points=[[0,0.5],[1,0.5]];portConstraint=eastwest;whiteSpace=wrap;html=1;" vertex="1" parent="Ib7XOItrtZM7JdyORI7V-1">
          <mxGeometry y="78" width="250" height="26" as="geometry" />
        </mxCell>
        <mxCell id="Ib7XOItrtZM7JdyORI7V-49" value="+ SimulatorTasks:&amp;nbsp;DbSet&amp;lt;SimulatorTask&amp;gt;&amp;nbsp;" style="text;strokeColor=none;fillColor=none;align=left;verticalAlign=top;spacingLeft=4;spacingRight=4;overflow=hidden;rotatable=0;points=[[0,0.5],[1,0.5]];portConstraint=eastwest;whiteSpace=wrap;html=1;" vertex="1" parent="Ib7XOItrtZM7JdyORI7V-1">
          <mxGeometry y="104" width="250" height="26" as="geometry" />
        </mxCell>
        <mxCell id="Ib7XOItrtZM7JdyORI7V-54" value="+ Users:&amp;nbsp;DbSet&amp;lt;User&amp;gt;&amp;nbsp;" style="text;strokeColor=none;fillColor=none;align=left;verticalAlign=top;spacingLeft=4;spacingRight=4;overflow=hidden;rotatable=0;points=[[0,0.5],[1,0.5]];portConstraint=eastwest;whiteSpace=wrap;html=1;" vertex="1" parent="Ib7XOItrtZM7JdyORI7V-1">
          <mxGeometry y="130" width="250" height="26" as="geometry" />
        </mxCell>
        <mxCell id="Ib7XOItrtZM7JdyORI7V-56" value="+ SimulatorTasks:&amp;nbsp;DbSet&amp;lt;SimulatorTask&amp;gt;&amp;nbsp;" style="text;strokeColor=none;fillColor=none;align=left;verticalAlign=top;spacingLeft=4;spacingRight=4;overflow=hidden;rotatable=0;points=[[0,0.5],[1,0.5]];portConstraint=eastwest;whiteSpace=wrap;html=1;" vertex="1" parent="Ib7XOItrtZM7JdyORI7V-1">
          <mxGeometry y="156" width="250" height="26" as="geometry" />
        </mxCell>
        <mxCell id="Ib7XOItrtZM7JdyORI7V-17" value="" style="line;html=1;strokeWidth=1;align=left;verticalAlign=middle;spacingTop=-1;spacingLeft=3;spacingRight=3;rotatable=0;labelPosition=right;points=[];portConstraint=eastwest;" vertex="1" parent="Ib7XOItrtZM7JdyORI7V-1">
          <mxGeometry y="182" width="250" height="8" as="geometry" />
        </mxCell>
        <mxCell id="Ib7XOItrtZM7JdyORI7V-18" value="# OnConfiguring(optionsBuilder: &#xa;DbContextOptionsBuilder)" style="text;align=left;verticalAlign=top;spacingLeft=4;spacingRight=4;overflow=hidden;rotatable=0;points=[[0,0.5],[1,0.5]];portConstraint=eastwest;" vertex="1" parent="Ib7XOItrtZM7JdyORI7V-1">
          <mxGeometry y="190" width="250" height="40" as="geometry" />
        </mxCell>
        <mxCell id="Ib7XOItrtZM7JdyORI7V-58" value="# OnModelCreating(modelBuilder: &#xa;ModelBuilder)" style="text;align=left;verticalAlign=top;spacingLeft=4;spacingRight=4;overflow=hidden;rotatable=0;points=[[0,0.5],[1,0.5]];portConstraint=eastwest;" vertex="1" parent="Ib7XOItrtZM7JdyORI7V-1">
          <mxGeometry y="230" width="250" height="40" as="geometry" />
        </mxCell>
        <mxCell id="Ib7XOItrtZM7JdyORI7V-59" value="History" style="swimlane;fontStyle=2;align=center;verticalAlign=top;childLayout=stackLayout;horizontal=1;startSize=26;horizontalStack=0;resizeParent=1;resizeLast=0;collapsible=1;marginBottom=0;rounded=0;shadow=0;strokeWidth=1;" vertex="1" parent="1">
          <mxGeometry x="-90" y="-210" width="250" height="220" as="geometry">
            <mxRectangle x="220" y="120" width="160" height="26" as="alternateBounds" />
          </mxGeometry>
        </mxCell>
        <mxCell id="Ib7XOItrtZM7JdyORI7V-60" value="+ Id:&amp;nbsp;int" style="text;strokeColor=none;fillColor=none;align=left;verticalAlign=top;spacingLeft=4;spacingRight=4;overflow=hidden;rotatable=0;points=[[0,0.5],[1,0.5]];portConstraint=eastwest;whiteSpace=wrap;html=1;" vertex="1" parent="Ib7XOItrtZM7JdyORI7V-59">
          <mxGeometry y="26" width="250" height="26" as="geometry" />
        </mxCell>
        <mxCell id="Ib7XOItrtZM7JdyORI7V-61" value="+ IdUser:&amp;nbsp;Guid" style="text;strokeColor=none;fillColor=none;align=left;verticalAlign=top;spacingLeft=4;spacingRight=4;overflow=hidden;rotatable=0;points=[[0,0.5],[1,0.5]];portConstraint=eastwest;whiteSpace=wrap;html=1;" vertex="1" parent="Ib7XOItrtZM7JdyORI7V-59">
          <mxGeometry y="52" width="250" height="26" as="geometry" />
        </mxCell>
        <mxCell id="Ib7XOItrtZM7JdyORI7V-62" value="+ IdSimulator:&amp;nbsp;int" style="text;strokeColor=none;fillColor=none;align=left;verticalAlign=top;spacingLeft=4;spacingRight=4;overflow=hidden;rotatable=0;points=[[0,0.5],[1,0.5]];portConstraint=eastwest;whiteSpace=wrap;html=1;" vertex="1" parent="Ib7XOItrtZM7JdyORI7V-59">
          <mxGeometry y="78" width="250" height="26" as="geometry" />
        </mxCell>
        <mxCell id="Ib7XOItrtZM7JdyORI7V-63" value="+ Result:&amp;nbsp;bool" style="text;strokeColor=none;fillColor=none;align=left;verticalAlign=top;spacingLeft=4;spacingRight=4;overflow=hidden;rotatable=0;points=[[0,0.5],[1,0.5]];portConstraint=eastwest;whiteSpace=wrap;html=1;" vertex="1" parent="Ib7XOItrtZM7JdyORI7V-59">
          <mxGeometry y="104" width="250" height="26" as="geometry" />
        </mxCell>
        <mxCell id="Ib7XOItrtZM7JdyORI7V-64" value="+ PassageDateTime:&amp;nbsp;DateTime" style="text;strokeColor=none;fillColor=none;align=left;verticalAlign=top;spacingLeft=4;spacingRight=4;overflow=hidden;rotatable=0;points=[[0,0.5],[1,0.5]];portConstraint=eastwest;whiteSpace=wrap;html=1;" vertex="1" parent="Ib7XOItrtZM7JdyORI7V-59">
          <mxGeometry y="130" width="250" height="26" as="geometry" />
        </mxCell>
        <mxCell id="Ib7XOItrtZM7JdyORI7V-65" value="+ IdSimulatorNavigation:&amp;nbsp;Simulator" style="text;strokeColor=none;fillColor=none;align=left;verticalAlign=top;spacingLeft=4;spacingRight=4;overflow=hidden;rotatable=0;points=[[0,0.5],[1,0.5]];portConstraint=eastwest;whiteSpace=wrap;html=1;" vertex="1" parent="Ib7XOItrtZM7JdyORI7V-59">
          <mxGeometry y="156" width="250" height="26" as="geometry" />
        </mxCell>
        <mxCell id="Ib7XOItrtZM7JdyORI7V-69" value="+ IdUserNavigation:&amp;nbsp;User" style="text;strokeColor=none;fillColor=none;align=left;verticalAlign=top;spacingLeft=4;spacingRight=4;overflow=hidden;rotatable=0;points=[[0,0.5],[1,0.5]];portConstraint=eastwest;whiteSpace=wrap;html=1;" vertex="1" parent="Ib7XOItrtZM7JdyORI7V-59">
          <mxGeometry y="182" width="250" height="26" as="geometry" />
        </mxCell>
        <mxCell id="Ib7XOItrtZM7JdyORI7V-66" value="" style="line;html=1;strokeWidth=1;align=left;verticalAlign=middle;spacingTop=-1;spacingLeft=3;spacingRight=3;rotatable=0;labelPosition=right;points=[];portConstraint=eastwest;" vertex="1" parent="Ib7XOItrtZM7JdyORI7V-59">
          <mxGeometry y="208" width="250" height="8" as="geometry" />
        </mxCell>
        <mxCell id="Ib7XOItrtZM7JdyORI7V-70" value="Role" style="swimlane;fontStyle=2;align=center;verticalAlign=top;childLayout=stackLayout;horizontal=1;startSize=26;horizontalStack=0;resizeParent=1;resizeLast=0;collapsible=1;marginBottom=0;rounded=0;shadow=0;strokeWidth=1;" vertex="1" parent="1">
          <mxGeometry x="170" y="-210" width="250" height="120" as="geometry">
            <mxRectangle x="220" y="120" width="160" height="26" as="alternateBounds" />
          </mxGeometry>
        </mxCell>
        <mxCell id="Ib7XOItrtZM7JdyORI7V-71" value="+ IdRole:&amp;nbsp;int" style="text;strokeColor=none;fillColor=none;align=left;verticalAlign=top;spacingLeft=4;spacingRight=4;overflow=hidden;rotatable=0;points=[[0,0.5],[1,0.5]];portConstraint=eastwest;whiteSpace=wrap;html=1;" vertex="1" parent="Ib7XOItrtZM7JdyORI7V-70">
          <mxGeometry y="26" width="250" height="26" as="geometry" />
        </mxCell>
        <mxCell id="Ib7XOItrtZM7JdyORI7V-72" value="+ Role: string" style="text;strokeColor=none;fillColor=none;align=left;verticalAlign=top;spacingLeft=4;spacingRight=4;overflow=hidden;rotatable=0;points=[[0,0.5],[1,0.5]];portConstraint=eastwest;whiteSpace=wrap;html=1;" vertex="1" parent="Ib7XOItrtZM7JdyORI7V-70">
          <mxGeometry y="52" width="250" height="26" as="geometry" />
        </mxCell>
        <mxCell id="Ib7XOItrtZM7JdyORI7V-73" value="+ Users:&amp;nbsp;List&amp;lt;User&amp;gt;" style="text;strokeColor=none;fillColor=none;align=left;verticalAlign=top;spacingLeft=4;spacingRight=4;overflow=hidden;rotatable=0;points=[[0,0.5],[1,0.5]];portConstraint=eastwest;whiteSpace=wrap;html=1;" vertex="1" parent="Ib7XOItrtZM7JdyORI7V-70">
          <mxGeometry y="78" width="250" height="26" as="geometry" />
        </mxCell>
        <mxCell id="Ib7XOItrtZM7JdyORI7V-78" value="" style="line;html=1;strokeWidth=1;align=left;verticalAlign=middle;spacingTop=-1;spacingLeft=3;spacingRight=3;rotatable=0;labelPosition=right;points=[];portConstraint=eastwest;" vertex="1" parent="Ib7XOItrtZM7JdyORI7V-70">
          <mxGeometry y="104" width="250" height="8" as="geometry" />
        </mxCell>
        <mxCell id="Ib7XOItrtZM7JdyORI7V-79" value="Simulator" style="swimlane;fontStyle=2;align=center;verticalAlign=top;childLayout=stackLayout;horizontal=1;startSize=26;horizontalStack=0;resizeParent=1;resizeLast=0;collapsible=1;marginBottom=0;rounded=0;shadow=0;strokeWidth=1;" vertex="1" parent="1">
          <mxGeometry x="427" y="-210" width="250" height="170" as="geometry">
            <mxRectangle x="220" y="120" width="160" height="26" as="alternateBounds" />
          </mxGeometry>
        </mxCell>
        <mxCell id="Ib7XOItrtZM7JdyORI7V-80" value="+ Id:&amp;nbsp;int" style="text;strokeColor=none;fillColor=none;align=left;verticalAlign=top;spacingLeft=4;spacingRight=4;overflow=hidden;rotatable=0;points=[[0,0.5],[1,0.5]];portConstraint=eastwest;whiteSpace=wrap;html=1;" vertex="1" parent="Ib7XOItrtZM7JdyORI7V-79">
          <mxGeometry y="26" width="250" height="26" as="geometry" />
        </mxCell>
        <mxCell id="Ib7XOItrtZM7JdyORI7V-81" value="+ Name:&amp;nbsp;string" style="text;strokeColor=none;fillColor=none;align=left;verticalAlign=top;spacingLeft=4;spacingRight=4;overflow=hidden;rotatable=0;points=[[0,0.5],[1,0.5]];portConstraint=eastwest;whiteSpace=wrap;html=1;" vertex="1" parent="Ib7XOItrtZM7JdyORI7V-79">
          <mxGeometry y="52" width="250" height="26" as="geometry" />
        </mxCell>
        <mxCell id="Ib7XOItrtZM7JdyORI7V-82" value="+ Theory:&amp;nbsp;string" style="text;strokeColor=none;fillColor=none;align=left;verticalAlign=top;spacingLeft=4;spacingRight=4;overflow=hidden;rotatable=0;points=[[0,0.5],[1,0.5]];portConstraint=eastwest;whiteSpace=wrap;html=1;" vertex="1" parent="Ib7XOItrtZM7JdyORI7V-79">
          <mxGeometry y="78" width="250" height="26" as="geometry" />
        </mxCell>
        <mxCell id="Ib7XOItrtZM7JdyORI7V-83" value="+ Histories:&amp;nbsp;List&amp;lt;History&amp;gt;" style="text;strokeColor=none;fillColor=none;align=left;verticalAlign=top;spacingLeft=4;spacingRight=4;overflow=hidden;rotatable=0;points=[[0,0.5],[1,0.5]];portConstraint=eastwest;whiteSpace=wrap;html=1;" vertex="1" parent="Ib7XOItrtZM7JdyORI7V-79">
          <mxGeometry y="104" width="250" height="26" as="geometry" />
        </mxCell>
        <mxCell id="Ib7XOItrtZM7JdyORI7V-84" value="+ SimulatorTasks:&amp;nbsp;List&amp;lt;SimulatorTask&amp;gt;" style="text;strokeColor=none;fillColor=none;align=left;verticalAlign=top;spacingLeft=4;spacingRight=4;overflow=hidden;rotatable=0;points=[[0,0.5],[1,0.5]];portConstraint=eastwest;whiteSpace=wrap;html=1;" vertex="1" parent="Ib7XOItrtZM7JdyORI7V-79">
          <mxGeometry y="130" width="250" height="26" as="geometry" />
        </mxCell>
        <mxCell id="Ib7XOItrtZM7JdyORI7V-87" value="" style="line;html=1;strokeWidth=1;align=left;verticalAlign=middle;spacingTop=-1;spacingLeft=3;spacingRight=3;rotatable=0;labelPosition=right;points=[];portConstraint=eastwest;" vertex="1" parent="Ib7XOItrtZM7JdyORI7V-79">
          <mxGeometry y="156" width="250" height="8" as="geometry" />
        </mxCell>
        <mxCell id="Ib7XOItrtZM7JdyORI7V-88" value="SimulatorTask" style="swimlane;fontStyle=2;align=center;verticalAlign=top;childLayout=stackLayout;horizontal=1;startSize=26;horizontalStack=0;resizeParent=1;resizeLast=0;collapsible=1;marginBottom=0;rounded=0;shadow=0;strokeWidth=1;" vertex="1" parent="1">
          <mxGeometry x="690" y="-210" width="250" height="170" as="geometry">
            <mxRectangle x="220" y="120" width="160" height="26" as="alternateBounds" />
          </mxGeometry>
        </mxCell>
        <mxCell id="Ib7XOItrtZM7JdyORI7V-89" value="+ Id:&amp;nbsp;int" style="text;strokeColor=none;fillColor=none;align=left;verticalAlign=top;spacingLeft=4;spacingRight=4;overflow=hidden;rotatable=0;points=[[0,0.5],[1,0.5]];portConstraint=eastwest;whiteSpace=wrap;html=1;" vertex="1" parent="Ib7XOItrtZM7JdyORI7V-88">
          <mxGeometry y="26" width="250" height="26" as="geometry" />
        </mxCell>
        <mxCell id="Ib7XOItrtZM7JdyORI7V-90" value="+ IdSimulator:&amp;nbsp;int" style="text;strokeColor=none;fillColor=none;align=left;verticalAlign=top;spacingLeft=4;spacingRight=4;overflow=hidden;rotatable=0;points=[[0,0.5],[1,0.5]];portConstraint=eastwest;whiteSpace=wrap;html=1;" vertex="1" parent="Ib7XOItrtZM7JdyORI7V-88">
          <mxGeometry y="52" width="250" height="26" as="geometry" />
        </mxCell>
        <mxCell id="Ib7XOItrtZM7JdyORI7V-91" value="+ ZadanieMatrix:&amp;nbsp;int[,]" style="text;strokeColor=none;fillColor=none;align=left;verticalAlign=top;spacingLeft=4;spacingRight=4;overflow=hidden;rotatable=0;points=[[0,0.5],[1,0.5]];portConstraint=eastwest;whiteSpace=wrap;html=1;" vertex="1" parent="Ib7XOItrtZM7JdyORI7V-88">
          <mxGeometry y="78" width="250" height="26" as="geometry" />
        </mxCell>
        <mxCell id="Ib7XOItrtZM7JdyORI7V-92" value="+ Answer:&amp;nbsp;int" style="text;strokeColor=none;fillColor=none;align=left;verticalAlign=top;spacingLeft=4;spacingRight=4;overflow=hidden;rotatable=0;points=[[0,0.5],[1,0.5]];portConstraint=eastwest;whiteSpace=wrap;html=1;" vertex="1" parent="Ib7XOItrtZM7JdyORI7V-88">
          <mxGeometry y="104" width="250" height="26" as="geometry" />
        </mxCell>
        <mxCell id="Ib7XOItrtZM7JdyORI7V-93" value="+ IdSimulatorNavigation:&amp;nbsp;Simulator" style="text;strokeColor=none;fillColor=none;align=left;verticalAlign=top;spacingLeft=4;spacingRight=4;overflow=hidden;rotatable=0;points=[[0,0.5],[1,0.5]];portConstraint=eastwest;whiteSpace=wrap;html=1;" vertex="1" parent="Ib7XOItrtZM7JdyORI7V-88">
          <mxGeometry y="130" width="250" height="26" as="geometry" />
        </mxCell>
        <mxCell id="Ib7XOItrtZM7JdyORI7V-94" value="" style="line;html=1;strokeWidth=1;align=left;verticalAlign=middle;spacingTop=-1;spacingLeft=3;spacingRight=3;rotatable=0;labelPosition=right;points=[];portConstraint=eastwest;" vertex="1" parent="Ib7XOItrtZM7JdyORI7V-88">
          <mxGeometry y="156" width="250" height="8" as="geometry" />
        </mxCell>
        <mxCell id="Ib7XOItrtZM7JdyORI7V-95" value="User" style="swimlane;fontStyle=2;align=center;verticalAlign=top;childLayout=stackLayout;horizontal=1;startSize=26;horizontalStack=0;resizeParent=1;resizeLast=0;collapsible=1;marginBottom=0;rounded=0;shadow=0;strokeWidth=1;" vertex="1" parent="1">
          <mxGeometry x="970" y="-210" width="180" height="330" as="geometry">
            <mxRectangle x="220" y="120" width="160" height="26" as="alternateBounds" />
          </mxGeometry>
        </mxCell>
        <mxCell id="Ib7XOItrtZM7JdyORI7V-96" value="+ Id: Guid" style="text;strokeColor=none;fillColor=none;align=left;verticalAlign=top;spacingLeft=4;spacingRight=4;overflow=hidden;rotatable=0;points=[[0,0.5],[1,0.5]];portConstraint=eastwest;whiteSpace=wrap;html=1;" vertex="1" parent="Ib7XOItrtZM7JdyORI7V-95">
          <mxGeometry y="26" width="180" height="26" as="geometry" />
        </mxCell>
        <mxCell id="Ib7XOItrtZM7JdyORI7V-97" value="+ Surname: string&#xa;" style="text;align=left;verticalAlign=top;spacingLeft=4;spacingRight=4;overflow=hidden;rotatable=0;points=[[0,0.5],[1,0.5]];portConstraint=eastwest;" vertex="1" parent="Ib7XOItrtZM7JdyORI7V-95">
          <mxGeometry y="52" width="180" height="26" as="geometry" />
        </mxCell>
        <mxCell id="Ib7XOItrtZM7JdyORI7V-98" value="+ Name: string" style="text;strokeColor=none;fillColor=none;align=left;verticalAlign=top;spacingLeft=4;spacingRight=4;overflow=hidden;rotatable=0;points=[[0,0.5],[1,0.5]];portConstraint=eastwest;whiteSpace=wrap;html=1;" vertex="1" parent="Ib7XOItrtZM7JdyORI7V-95">
          <mxGeometry y="78" width="180" height="26" as="geometry" />
        </mxCell>
        <mxCell id="Ib7XOItrtZM7JdyORI7V-99" value="+ Patronymic: string" style="text;strokeColor=none;fillColor=none;align=left;verticalAlign=top;spacingLeft=4;spacingRight=4;overflow=hidden;rotatable=0;points=[[0,0.5],[1,0.5]];portConstraint=eastwest;whiteSpace=wrap;html=1;" vertex="1" parent="Ib7XOItrtZM7JdyORI7V-95">
          <mxGeometry y="104" width="180" height="26" as="geometry" />
        </mxCell>
        <mxCell id="Ib7XOItrtZM7JdyORI7V-100" value="+ Telephone: string" style="text;strokeColor=none;fillColor=none;align=left;verticalAlign=top;spacingLeft=4;spacingRight=4;overflow=hidden;rotatable=0;points=[[0,0.5],[1,0.5]];portConstraint=eastwest;whiteSpace=wrap;html=1;" vertex="1" parent="Ib7XOItrtZM7JdyORI7V-95">
          <mxGeometry y="130" width="180" height="26" as="geometry" />
        </mxCell>
        <mxCell id="Ib7XOItrtZM7JdyORI7V-101" value="+ Email: string" style="text;strokeColor=none;fillColor=none;align=left;verticalAlign=top;spacingLeft=4;spacingRight=4;overflow=hidden;rotatable=0;points=[[0,0.5],[1,0.5]];portConstraint=eastwest;whiteSpace=wrap;html=1;" vertex="1" parent="Ib7XOItrtZM7JdyORI7V-95">
          <mxGeometry y="156" width="180" height="26" as="geometry" />
        </mxCell>
        <mxCell id="Ib7XOItrtZM7JdyORI7V-102" value="+ Login: string" style="text;strokeColor=none;fillColor=none;align=left;verticalAlign=top;spacingLeft=4;spacingRight=4;overflow=hidden;rotatable=0;points=[[0,0.5],[1,0.5]];portConstraint=eastwest;whiteSpace=wrap;html=1;" vertex="1" parent="Ib7XOItrtZM7JdyORI7V-95">
          <mxGeometry y="182" width="180" height="26" as="geometry" />
        </mxCell>
        <mxCell id="Ib7XOItrtZM7JdyORI7V-103" value="+ Password: string" style="text;strokeColor=none;fillColor=none;align=left;verticalAlign=top;spacingLeft=4;spacingRight=4;overflow=hidden;rotatable=0;points=[[0,0.5],[1,0.5]];portConstraint=eastwest;whiteSpace=wrap;html=1;" vertex="1" parent="Ib7XOItrtZM7JdyORI7V-95">
          <mxGeometry y="208" width="180" height="26" as="geometry" />
        </mxCell>
        <mxCell id="Ib7XOItrtZM7JdyORI7V-104" value="+ IdRole: int" style="text;strokeColor=none;fillColor=none;align=left;verticalAlign=top;spacingLeft=4;spacingRight=4;overflow=hidden;rotatable=0;points=[[0,0.5],[1,0.5]];portConstraint=eastwest;whiteSpace=wrap;html=1;" vertex="1" parent="Ib7XOItrtZM7JdyORI7V-95">
          <mxGeometry y="234" width="180" height="26" as="geometry" />
        </mxCell>
        <mxCell id="Ib7XOItrtZM7JdyORI7V-105" value="+ Histories: List&amp;lt;History&amp;gt;" style="text;strokeColor=none;fillColor=none;align=left;verticalAlign=top;spacingLeft=4;spacingRight=4;overflow=hidden;rotatable=0;points=[[0,0.5],[1,0.5]];portConstraint=eastwest;whiteSpace=wrap;html=1;" vertex="1" parent="Ib7XOItrtZM7JdyORI7V-95">
          <mxGeometry y="260" width="180" height="26" as="geometry" />
        </mxCell>
        <mxCell id="Ib7XOItrtZM7JdyORI7V-106" value="+ IdRoleNavigation: Role&#xa;" style="text;align=left;verticalAlign=top;spacingLeft=4;spacingRight=4;overflow=hidden;rotatable=0;points=[[0,0.5],[1,0.5]];portConstraint=eastwest;rounded=0;shadow=0;html=0;" vertex="1" parent="Ib7XOItrtZM7JdyORI7V-95">
          <mxGeometry y="286" width="180" height="26" as="geometry" />
        </mxCell>
        <mxCell id="Ib7XOItrtZM7JdyORI7V-111" value="" style="line;html=1;strokeWidth=1;align=left;verticalAlign=middle;spacingTop=-1;spacingLeft=3;spacingRight=3;rotatable=0;labelPosition=right;points=[];portConstraint=eastwest;" vertex="1" parent="Ib7XOItrtZM7JdyORI7V-95">
          <mxGeometry y="312" width="180" height="8" as="geometry" />
        </mxCell>
        <mxCell id="Ib7XOItrtZM7JdyORI7V-181" style="edgeStyle=orthogonalEdgeStyle;rounded=0;orthogonalLoop=1;jettySize=auto;html=1;entryX=1;entryY=0.5;entryDx=0;entryDy=0;endArrow=block;endFill=0;" edge="1" parent="1" source="Ib7XOItrtZM7JdyORI7V-120" target="Ib7XOItrtZM7JdyORI7V-147">
          <mxGeometry relative="1" as="geometry" />
        </mxCell>
        <mxCell id="Ib7XOItrtZM7JdyORI7V-120" value="ViewModelBase" style="swimlane;fontStyle=2;align=center;verticalAlign=top;childLayout=stackLayout;horizontal=1;startSize=26;horizontalStack=0;resizeParent=1;resizeLast=0;collapsible=1;marginBottom=0;rounded=0;shadow=0;strokeWidth=1;" vertex="1" parent="1">
          <mxGeometry x="440" y="-1230" width="250" height="390" as="geometry">
            <mxRectangle x="220" y="120" width="160" height="26" as="alternateBounds" />
          </mxGeometry>
        </mxCell>
        <mxCell id="Ib7XOItrtZM7JdyORI7V-121" value="- _startPage:&amp;nbsp;PageSwitcher" style="text;strokeColor=none;fillColor=none;align=left;verticalAlign=top;spacingLeft=4;spacingRight=4;overflow=hidden;rotatable=0;points=[[0,0.5],[1,0.5]];portConstraint=eastwest;whiteSpace=wrap;html=1;" vertex="1" parent="Ib7XOItrtZM7JdyORI7V-120">
          <mxGeometry y="26" width="250" height="26" as="geometry" />
        </mxCell>
        <mxCell id="Ib7XOItrtZM7JdyORI7V-122" value="- _pageSwitch:&amp;nbsp;PageSwitcher" style="text;strokeColor=none;fillColor=none;align=left;verticalAlign=top;spacingLeft=4;spacingRight=4;overflow=hidden;rotatable=0;points=[[0,0.5],[1,0.5]];portConstraint=eastwest;whiteSpace=wrap;html=1;" vertex="1" parent="Ib7XOItrtZM7JdyORI7V-120">
          <mxGeometry y="52" width="250" height="26" as="geometry" />
        </mxCell>
        <mxCell id="Ib7XOItrtZM7JdyORI7V-123" value="- _contextDb:&amp;nbsp;Trio33pContext&amp;nbsp;" style="text;strokeColor=none;fillColor=none;align=left;verticalAlign=top;spacingLeft=4;spacingRight=4;overflow=hidden;rotatable=0;points=[[0,0.5],[1,0.5]];portConstraint=eastwest;whiteSpace=wrap;html=1;" vertex="1" parent="Ib7XOItrtZM7JdyORI7V-120">
          <mxGeometry y="78" width="250" height="26" as="geometry" />
        </mxCell>
        <mxCell id="Ib7XOItrtZM7JdyORI7V-124" value="- _keyDb:&amp;nbsp;byte[]" style="text;strokeColor=none;fillColor=none;align=left;verticalAlign=top;spacingLeft=4;spacingRight=4;overflow=hidden;rotatable=0;points=[[0,0.5],[1,0.5]];portConstraint=eastwest;whiteSpace=wrap;html=1;" vertex="1" parent="Ib7XOItrtZM7JdyORI7V-120">
          <mxGeometry y="104" width="250" height="26" as="geometry" />
        </mxCell>
        <mxCell id="Ib7XOItrtZM7JdyORI7V-125" value="- currentUser:&amp;nbsp;User" style="text;strokeColor=none;fillColor=none;align=left;verticalAlign=top;spacingLeft=4;spacingRight=4;overflow=hidden;rotatable=0;points=[[0,0.5],[1,0.5]];portConstraint=eastwest;whiteSpace=wrap;html=1;" vertex="1" parent="Ib7XOItrtZM7JdyORI7V-120">
          <mxGeometry y="130" width="250" height="26" as="geometry" />
        </mxCell>
        <mxCell id="Ib7XOItrtZM7JdyORI7V-127" value="" style="line;html=1;strokeWidth=1;align=left;verticalAlign=middle;spacingTop=-1;spacingLeft=3;spacingRight=3;rotatable=0;labelPosition=right;points=[];portConstraint=eastwest;" vertex="1" parent="Ib7XOItrtZM7JdyORI7V-120">
          <mxGeometry y="156" width="250" height="8" as="geometry" />
        </mxCell>
        <mxCell id="Ib7XOItrtZM7JdyORI7V-128" value="+ StartPage(): PageSwitcher&#xa;+ StartPage(value: PageSwitcher): void" style="text;align=left;verticalAlign=top;spacingLeft=4;spacingRight=4;overflow=hidden;rotatable=0;points=[[0,0.5],[1,0.5]];portConstraint=eastwest;" vertex="1" parent="Ib7XOItrtZM7JdyORI7V-120">
          <mxGeometry y="164" width="250" height="40" as="geometry" />
        </mxCell>
        <mxCell id="Ib7XOItrtZM7JdyORI7V-129" value="+ PageSwitch(): PageSwitcher&#xa;+ PageSwitch(value: PageSwitcher): void" style="text;align=left;verticalAlign=top;spacingLeft=4;spacingRight=4;overflow=hidden;rotatable=0;points=[[0,0.5],[1,0.5]];portConstraint=eastwest;" vertex="1" parent="Ib7XOItrtZM7JdyORI7V-120">
          <mxGeometry y="204" width="250" height="40" as="geometry" />
        </mxCell>
        <mxCell id="Ib7XOItrtZM7JdyORI7V-130" value="+ ContextDb(): Trio33pContext&#xa;+ ContextDb(value: Trio33pContext): void" style="text;align=left;verticalAlign=top;spacingLeft=4;spacingRight=4;overflow=hidden;rotatable=0;points=[[0,0.5],[1,0.5]];portConstraint=eastwest;" vertex="1" parent="Ib7XOItrtZM7JdyORI7V-120">
          <mxGeometry y="244" width="250" height="40" as="geometry" />
        </mxCell>
        <mxCell id="Ib7XOItrtZM7JdyORI7V-131" value="+ KeyDb():  byte[]&#xa;+ KeyDb(value:  byte[]): void" style="text;align=left;verticalAlign=top;spacingLeft=4;spacingRight=4;overflow=hidden;rotatable=0;points=[[0,0.5],[1,0.5]];portConstraint=eastwest;" vertex="1" parent="Ib7XOItrtZM7JdyORI7V-120">
          <mxGeometry y="284" width="250" height="40" as="geometry" />
        </mxCell>
        <mxCell id="Ib7XOItrtZM7JdyORI7V-132" value="+ CurrentUser(): User&#xa;+ CurrentUser(value: User): void" style="text;align=left;verticalAlign=top;spacingLeft=4;spacingRight=4;overflow=hidden;rotatable=0;points=[[0,0.5],[1,0.5]];portConstraint=eastwest;" vertex="1" parent="Ib7XOItrtZM7JdyORI7V-120">
          <mxGeometry y="324" width="250" height="40" as="geometry" />
        </mxCell>
        <mxCell id="Ib7XOItrtZM7JdyORI7V-133" value="+ UserRole(): int" style="text;align=left;verticalAlign=top;spacingLeft=4;spacingRight=4;overflow=hidden;rotatable=0;points=[[0,0.5],[1,0.5]];portConstraint=eastwest;" vertex="1" parent="Ib7XOItrtZM7JdyORI7V-120">
          <mxGeometry y="364" width="250" height="26" as="geometry" />
        </mxCell>
        <mxCell id="Ib7XOItrtZM7JdyORI7V-134" value="MainWindowViewModel" style="swimlane;fontStyle=2;align=center;verticalAlign=top;childLayout=stackLayout;horizontal=1;startSize=26;horizontalStack=0;resizeParent=1;resizeLast=0;collapsible=1;marginBottom=0;rounded=0;shadow=0;strokeWidth=1;" vertex="1" parent="1">
          <mxGeometry x="830" y="-1230" width="350" height="614" as="geometry">
            <mxRectangle x="220" y="120" width="160" height="26" as="alternateBounds" />
          </mxGeometry>
        </mxCell>
        <mxCell id="Ib7XOItrtZM7JdyORI7V-135" value="- authorizationVM:&amp;nbsp;AuthorizationViewModel" style="text;strokeColor=none;fillColor=none;align=left;verticalAlign=top;spacingLeft=4;spacingRight=4;overflow=hidden;rotatable=0;points=[[0,0.5],[1,0.5]];portConstraint=eastwest;whiteSpace=wrap;html=1;" vertex="1" parent="Ib7XOItrtZM7JdyORI7V-134">
          <mxGeometry y="26" width="350" height="26" as="geometry" />
        </mxCell>
        <mxCell id="Ib7XOItrtZM7JdyORI7V-136" value="- registrationViewModel:&amp;nbsp;RegistrationViewModel" style="text;strokeColor=none;fillColor=none;align=left;verticalAlign=top;spacingLeft=4;spacingRight=4;overflow=hidden;rotatable=0;points=[[0,0.5],[1,0.5]];portConstraint=eastwest;whiteSpace=wrap;html=1;" vertex="1" parent="Ib7XOItrtZM7JdyORI7V-134">
          <mxGeometry y="52" width="350" height="26" as="geometry" />
        </mxCell>
        <mxCell id="Ib7XOItrtZM7JdyORI7V-137" value="- menuNavigationVM:&amp;nbsp;MenuNavigationViewModel" style="text;strokeColor=none;fillColor=none;align=left;verticalAlign=top;spacingLeft=4;spacingRight=4;overflow=hidden;rotatable=0;points=[[0,0.5],[1,0.5]];portConstraint=eastwest;whiteSpace=wrap;html=1;" vertex="1" parent="Ib7XOItrtZM7JdyORI7V-134">
          <mxGeometry y="78" width="350" height="26" as="geometry" />
        </mxCell>
        <mxCell id="Ib7XOItrtZM7JdyORI7V-138" value="- userAccountViewModel:&amp;nbsp;UserAccountViewModel" style="text;strokeColor=none;fillColor=none;align=left;verticalAlign=top;spacingLeft=4;spacingRight=4;overflow=hidden;rotatable=0;points=[[0,0.5],[1,0.5]];portConstraint=eastwest;whiteSpace=wrap;html=1;" vertex="1" parent="Ib7XOItrtZM7JdyORI7V-134">
          <mxGeometry y="104" width="350" height="26" as="geometry" />
        </mxCell>
        <mxCell id="Ib7XOItrtZM7JdyORI7V-139" value="- statisticsViewModel:&amp;nbsp;StatisticsViewModel" style="text;strokeColor=none;fillColor=none;align=left;verticalAlign=top;spacingLeft=4;spacingRight=4;overflow=hidden;rotatable=0;points=[[0,0.5],[1,0.5]];portConstraint=eastwest;whiteSpace=wrap;html=1;" vertex="1" parent="Ib7XOItrtZM7JdyORI7V-134">
          <mxGeometry y="130" width="350" height="26" as="geometry" />
        </mxCell>
        <mxCell id="Ib7XOItrtZM7JdyORI7V-152" value="- simulatorsViewModel:&amp;nbsp;SimulatorsViewModel" style="text;strokeColor=none;fillColor=none;align=left;verticalAlign=top;spacingLeft=4;spacingRight=4;overflow=hidden;rotatable=0;points=[[0,0.5],[1,0.5]];portConstraint=eastwest;whiteSpace=wrap;html=1;" vertex="1" parent="Ib7XOItrtZM7JdyORI7V-134">
          <mxGeometry y="156" width="350" height="26" as="geometry" />
        </mxCell>
        <mxCell id="Ib7XOItrtZM7JdyORI7V-153" value="- taskSimulatorsViewModel:&amp;nbsp;TaskSimulatorsViewModel" style="text;strokeColor=none;fillColor=none;align=left;verticalAlign=top;spacingLeft=4;spacingRight=4;overflow=hidden;rotatable=0;points=[[0,0.5],[1,0.5]];portConstraint=eastwest;whiteSpace=wrap;html=1;" vertex="1" parent="Ib7XOItrtZM7JdyORI7V-134">
          <mxGeometry y="182" width="350" height="26" as="geometry" />
        </mxCell>
        <mxCell id="Ib7XOItrtZM7JdyORI7V-154" value="- createSimulatorViewModel:&amp;nbsp;CreateSimulatorViewModel" style="text;strokeColor=none;fillColor=none;align=left;verticalAlign=top;spacingLeft=4;spacingRight=4;overflow=hidden;rotatable=0;points=[[0,0.5],[1,0.5]];portConstraint=eastwest;whiteSpace=wrap;html=1;" vertex="1" parent="Ib7XOItrtZM7JdyORI7V-134">
          <mxGeometry y="208" width="350" height="26" as="geometry" />
        </mxCell>
        <mxCell id="Ib7XOItrtZM7JdyORI7V-140" value="" style="line;html=1;strokeWidth=1;align=left;verticalAlign=middle;spacingTop=-1;spacingLeft=3;spacingRight=3;rotatable=0;labelPosition=right;points=[];portConstraint=eastwest;" vertex="1" parent="Ib7XOItrtZM7JdyORI7V-134">
          <mxGeometry y="234" width="350" height="8" as="geometry" />
        </mxCell>
        <mxCell id="Ib7XOItrtZM7JdyORI7V-141" value="+ AuthVM(): AuthorizationViewModel&#xa;+ AuthVM(value: AuthorizationViewModel): void" style="text;align=left;verticalAlign=top;spacingLeft=4;spacingRight=4;overflow=hidden;rotatable=0;points=[[0,0.5],[1,0.5]];portConstraint=eastwest;" vertex="1" parent="Ib7XOItrtZM7JdyORI7V-134">
          <mxGeometry y="242" width="350" height="40" as="geometry" />
        </mxCell>
        <mxCell id="Ib7XOItrtZM7JdyORI7V-142" value="+ RegVM(): RegistrationViewModel&#xa;+ RegVM(value: RegistrationViewModel): void" style="text;align=left;verticalAlign=top;spacingLeft=4;spacingRight=4;overflow=hidden;rotatable=0;points=[[0,0.5],[1,0.5]];portConstraint=eastwest;" vertex="1" parent="Ib7XOItrtZM7JdyORI7V-134">
          <mxGeometry y="282" width="350" height="40" as="geometry" />
        </mxCell>
        <mxCell id="Ib7XOItrtZM7JdyORI7V-143" value="+ MenuVM(): MenuNavigationViewModel&#xa;+ MenuVM(value: MenuNavigationViewModel): void" style="text;align=left;verticalAlign=top;spacingLeft=4;spacingRight=4;overflow=hidden;rotatable=0;points=[[0,0.5],[1,0.5]];portConstraint=eastwest;" vertex="1" parent="Ib7XOItrtZM7JdyORI7V-134">
          <mxGeometry y="322" width="350" height="40" as="geometry" />
        </mxCell>
        <mxCell id="Ib7XOItrtZM7JdyORI7V-144" value="+ UserAccountVM():  UserAccountViewModel&#xa;+ UserAccountVM(value:  UserAccountViewModel): void" style="text;align=left;verticalAlign=top;spacingLeft=4;spacingRight=4;overflow=hidden;rotatable=0;points=[[0,0.5],[1,0.5]];portConstraint=eastwest;" vertex="1" parent="Ib7XOItrtZM7JdyORI7V-134">
          <mxGeometry y="362" width="350" height="40" as="geometry" />
        </mxCell>
        <mxCell id="Ib7XOItrtZM7JdyORI7V-145" value="+ StatisticsVM(): StatisticsViewModel&#xa;+ StatisticsVM(value: StatisticsViewModel): void" style="text;align=left;verticalAlign=top;spacingLeft=4;spacingRight=4;overflow=hidden;rotatable=0;points=[[0,0.5],[1,0.5]];portConstraint=eastwest;" vertex="1" parent="Ib7XOItrtZM7JdyORI7V-134">
          <mxGeometry y="402" width="350" height="40" as="geometry" />
        </mxCell>
        <mxCell id="Ib7XOItrtZM7JdyORI7V-157" value="+ SimulatorsVM(): SimulatorsViewModel&#xa;+ SimulatorsVM(value: SimulatorsViewModel): void" style="text;align=left;verticalAlign=top;spacingLeft=4;spacingRight=4;overflow=hidden;rotatable=0;points=[[0,0.5],[1,0.5]];portConstraint=eastwest;" vertex="1" parent="Ib7XOItrtZM7JdyORI7V-134">
          <mxGeometry y="442" width="350" height="40" as="geometry" />
        </mxCell>
        <mxCell id="Ib7XOItrtZM7JdyORI7V-158" value="+ TaskSimulatorsVM(): TaskSimulatorsViewModel&#xa;+ TaskSimulatorsVM(value: TaskSimulatorsViewModel): void" style="text;align=left;verticalAlign=top;spacingLeft=4;spacingRight=4;overflow=hidden;rotatable=0;points=[[0,0.5],[1,0.5]];portConstraint=eastwest;" vertex="1" parent="Ib7XOItrtZM7JdyORI7V-134">
          <mxGeometry y="482" width="350" height="40" as="geometry" />
        </mxCell>
        <mxCell id="Ib7XOItrtZM7JdyORI7V-159" value="+ CreateSimulatorVM(): CreateSimulatorViewModel&#xa;+ CreateSimulatorVM(value: CreateSimulatorViewModel): void" style="text;align=left;verticalAlign=top;spacingLeft=4;spacingRight=4;overflow=hidden;rotatable=0;points=[[0,0.5],[1,0.5]];portConstraint=eastwest;" vertex="1" parent="Ib7XOItrtZM7JdyORI7V-134">
          <mxGeometry y="522" width="350" height="40" as="geometry" />
        </mxCell>
        <mxCell id="Ib7XOItrtZM7JdyORI7V-146" value="+ ClearAuth(): void" style="text;align=left;verticalAlign=top;spacingLeft=4;spacingRight=4;overflow=hidden;rotatable=0;points=[[0,0.5],[1,0.5]];portConstraint=eastwest;" vertex="1" parent="Ib7XOItrtZM7JdyORI7V-134">
          <mxGeometry y="562" width="350" height="26" as="geometry" />
        </mxCell>
        <mxCell id="Ib7XOItrtZM7JdyORI7V-160" value="+ ClearRegistration(): void" style="text;align=left;verticalAlign=top;spacingLeft=4;spacingRight=4;overflow=hidden;rotatable=0;points=[[0,0.5],[1,0.5]];portConstraint=eastwest;" vertex="1" parent="Ib7XOItrtZM7JdyORI7V-134">
          <mxGeometry y="588" width="350" height="26" as="geometry" />
        </mxCell>
        <mxCell id="Ib7XOItrtZM7JdyORI7V-147" value="ObservableObject" style="swimlane;fontStyle=2;align=center;verticalAlign=top;childLayout=stackLayout;horizontal=1;startSize=26;horizontalStack=0;resizeParent=1;resizeLast=0;collapsible=1;marginBottom=0;rounded=0;shadow=0;strokeWidth=1;" vertex="1" parent="1">
          <mxGeometry x="140" y="-1055" width="250" height="40" as="geometry">
            <mxRectangle x="220" y="120" width="160" height="26" as="alternateBounds" />
          </mxGeometry>
        </mxCell>
        <mxCell id="Ib7XOItrtZM7JdyORI7V-151" value="" style="line;html=1;strokeWidth=1;align=left;verticalAlign=middle;spacingTop=-1;spacingLeft=3;spacingRight=3;rotatable=0;labelPosition=right;points=[];portConstraint=eastwest;" vertex="1" parent="Ib7XOItrtZM7JdyORI7V-147">
          <mxGeometry y="26" width="250" height="14" as="geometry" />
        </mxCell>
        <mxCell id="Ib7XOItrtZM7JdyORI7V-161" value="AuthorizationViewModel" style="swimlane;fontStyle=2;align=center;verticalAlign=top;childLayout=stackLayout;horizontal=1;startSize=26;horizontalStack=0;resizeParent=1;resizeLast=0;collapsible=1;marginBottom=0;rounded=0;shadow=0;strokeWidth=1;" vertex="1" parent="1">
          <mxGeometry x="1240" y="-1230" width="350" height="290" as="geometry">
            <mxRectangle x="220" y="120" width="160" height="26" as="alternateBounds" />
          </mxGeometry>
        </mxCell>
        <mxCell id="Ib7XOItrtZM7JdyORI7V-162" value="- login:&amp;nbsp;string" style="text;strokeColor=none;fillColor=none;align=left;verticalAlign=top;spacingLeft=4;spacingRight=4;overflow=hidden;rotatable=0;points=[[0,0.5],[1,0.5]];portConstraint=eastwest;whiteSpace=wrap;html=1;" vertex="1" parent="Ib7XOItrtZM7JdyORI7V-161">
          <mxGeometry y="26" width="350" height="26" as="geometry" />
        </mxCell>
        <mxCell id="Ib7XOItrtZM7JdyORI7V-163" value="- password:&amp;nbsp;string" style="text;strokeColor=none;fillColor=none;align=left;verticalAlign=top;spacingLeft=4;spacingRight=4;overflow=hidden;rotatable=0;points=[[0,0.5],[1,0.5]];portConstraint=eastwest;whiteSpace=wrap;html=1;" vertex="1" parent="Ib7XOItrtZM7JdyORI7V-161">
          <mxGeometry y="52" width="350" height="26" as="geometry" />
        </mxCell>
        <mxCell id="Ib7XOItrtZM7JdyORI7V-165" value="- message:&amp;nbsp;string" style="text;strokeColor=none;fillColor=none;align=left;verticalAlign=top;spacingLeft=4;spacingRight=4;overflow=hidden;rotatable=0;points=[[0,0.5],[1,0.5]];portConstraint=eastwest;whiteSpace=wrap;html=1;" vertex="1" parent="Ib7XOItrtZM7JdyORI7V-161">
          <mxGeometry y="78" width="350" height="26" as="geometry" />
        </mxCell>
        <mxCell id="Ib7XOItrtZM7JdyORI7V-170" value="" style="line;html=1;strokeWidth=1;align=left;verticalAlign=middle;spacingTop=-1;spacingLeft=3;spacingRight=3;rotatable=0;labelPosition=right;points=[];portConstraint=eastwest;" vertex="1" parent="Ib7XOItrtZM7JdyORI7V-161">
          <mxGeometry y="104" width="350" height="8" as="geometry" />
        </mxCell>
        <mxCell id="Ib7XOItrtZM7JdyORI7V-171" value="+ Login(): string&#xa;+ Login(value: string): void" style="text;align=left;verticalAlign=top;spacingLeft=4;spacingRight=4;overflow=hidden;rotatable=0;points=[[0,0.5],[1,0.5]];portConstraint=eastwest;" vertex="1" parent="Ib7XOItrtZM7JdyORI7V-161">
          <mxGeometry y="112" width="350" height="40" as="geometry" />
        </mxCell>
        <mxCell id="Ib7XOItrtZM7JdyORI7V-172" value="+ Password(): string&#xa;+ Password(value: string): void" style="text;align=left;verticalAlign=top;spacingLeft=4;spacingRight=4;overflow=hidden;rotatable=0;points=[[0,0.5],[1,0.5]];portConstraint=eastwest;" vertex="1" parent="Ib7XOItrtZM7JdyORI7V-161">
          <mxGeometry y="152" width="350" height="40" as="geometry" />
        </mxCell>
        <mxCell id="Ib7XOItrtZM7JdyORI7V-173" value="+ Message(): string&#xa;+ Message(value: string): void" style="text;align=left;verticalAlign=top;spacingLeft=4;spacingRight=4;overflow=hidden;rotatable=0;points=[[0,0.5],[1,0.5]];portConstraint=eastwest;" vertex="1" parent="Ib7XOItrtZM7JdyORI7V-161">
          <mxGeometry y="192" width="350" height="40" as="geometry" />
        </mxCell>
        <mxCell id="Ib7XOItrtZM7JdyORI7V-179" value="+ GoToRegistration(): void" style="text;align=left;verticalAlign=top;spacingLeft=4;spacingRight=4;overflow=hidden;rotatable=0;points=[[0,0.5],[1,0.5]];portConstraint=eastwest;" vertex="1" parent="Ib7XOItrtZM7JdyORI7V-161">
          <mxGeometry y="232" width="350" height="26" as="geometry" />
        </mxCell>
        <mxCell id="Ib7XOItrtZM7JdyORI7V-180" value="+ CheckAuthorization(): void" style="text;align=left;verticalAlign=top;spacingLeft=4;spacingRight=4;overflow=hidden;rotatable=0;points=[[0,0.5],[1,0.5]];portConstraint=eastwest;" vertex="1" parent="Ib7XOItrtZM7JdyORI7V-161">
          <mxGeometry y="258" width="350" height="26" as="geometry" />
        </mxCell>
        <mxCell id="Ib7XOItrtZM7JdyORI7V-182" style="edgeStyle=orthogonalEdgeStyle;rounded=0;orthogonalLoop=1;jettySize=auto;html=1;entryX=0.996;entryY=-0.05;entryDx=0;entryDy=0;entryPerimeter=0;endArrow=diamondThin;endFill=0;exitX=0;exitY=0.5;exitDx=0;exitDy=0;" edge="1" parent="1" source="Ib7XOItrtZM7JdyORI7V-141" target="Ib7XOItrtZM7JdyORI7V-129">
          <mxGeometry relative="1" as="geometry">
            <mxPoint x="950" y="-1028" as="sourcePoint" />
            <Array as="points">
              <mxPoint x="820" y="-968" />
              <mxPoint x="820" y="-1028" />
            </Array>
          </mxGeometry>
        </mxCell>
        <mxCell id="Ib7XOItrtZM7JdyORI7V-189" value="CreateSimulatorViewModel" style="swimlane;fontStyle=2;align=center;verticalAlign=top;childLayout=stackLayout;horizontal=1;startSize=26;horizontalStack=0;resizeParent=1;resizeLast=0;collapsible=1;marginBottom=0;rounded=0;shadow=0;strokeWidth=1;" vertex="1" parent="1">
          <mxGeometry x="1240" y="-930" width="350" height="744" as="geometry">
            <mxRectangle x="220" y="120" width="160" height="26" as="alternateBounds" />
          </mxGeometry>
        </mxCell>
        <mxCell id="Ib7XOItrtZM7JdyORI7V-190" value="- countRows:&amp;nbsp;int" style="text;strokeColor=none;fillColor=none;align=left;verticalAlign=top;spacingLeft=4;spacingRight=4;overflow=hidden;rotatable=0;points=[[0,0.5],[1,0.5]];portConstraint=eastwest;whiteSpace=wrap;html=1;" vertex="1" parent="Ib7XOItrtZM7JdyORI7V-189">
          <mxGeometry y="26" width="350" height="26" as="geometry" />
        </mxCell>
        <mxCell id="Ib7XOItrtZM7JdyORI7V-191" value="- countColumns:&amp;nbsp;int" style="text;strokeColor=none;fillColor=none;align=left;verticalAlign=top;spacingLeft=4;spacingRight=4;overflow=hidden;rotatable=0;points=[[0,0.5],[1,0.5]];portConstraint=eastwest;whiteSpace=wrap;html=1;" vertex="1" parent="Ib7XOItrtZM7JdyORI7V-189">
          <mxGeometry y="52" width="350" height="26" as="geometry" />
        </mxCell>
        <mxCell id="Ib7XOItrtZM7JdyORI7V-192" value="- matrix:&amp;nbsp;StackPanel" style="text;strokeColor=none;fillColor=none;align=left;verticalAlign=top;spacingLeft=4;spacingRight=4;overflow=hidden;rotatable=0;points=[[0,0.5],[1,0.5]];portConstraint=eastwest;whiteSpace=wrap;html=1;" vertex="1" parent="Ib7XOItrtZM7JdyORI7V-189">
          <mxGeometry y="78" width="350" height="26" as="geometry" />
        </mxCell>
        <mxCell id="Ib7XOItrtZM7JdyORI7V-199" value="- isVisibleEnterMatrix:&amp;nbsp;bool" style="text;strokeColor=none;fillColor=none;align=left;verticalAlign=top;spacingLeft=4;spacingRight=4;overflow=hidden;rotatable=0;points=[[0,0.5],[1,0.5]];portConstraint=eastwest;whiteSpace=wrap;html=1;" vertex="1" parent="Ib7XOItrtZM7JdyORI7V-189">
          <mxGeometry y="104" width="350" height="26" as="geometry" />
        </mxCell>
        <mxCell id="Ib7XOItrtZM7JdyORI7V-200" value="- listSimulators:&amp;nbsp;List&amp;lt;Simulator&amp;gt;" style="text;strokeColor=none;fillColor=none;align=left;verticalAlign=top;spacingLeft=4;spacingRight=4;overflow=hidden;rotatable=0;points=[[0,0.5],[1,0.5]];portConstraint=eastwest;whiteSpace=wrap;html=1;" vertex="1" parent="Ib7XOItrtZM7JdyORI7V-189">
          <mxGeometry y="130" width="350" height="26" as="geometry" />
        </mxCell>
        <mxCell id="Ib7XOItrtZM7JdyORI7V-201" value="- listSimulatorsView:&amp;nbsp;List&amp;lt;string&amp;gt;" style="text;strokeColor=none;fillColor=none;align=left;verticalAlign=top;spacingLeft=4;spacingRight=4;overflow=hidden;rotatable=0;points=[[0,0.5],[1,0.5]];portConstraint=eastwest;whiteSpace=wrap;html=1;" vertex="1" parent="Ib7XOItrtZM7JdyORI7V-189">
          <mxGeometry y="156" width="350" height="26" as="geometry" />
        </mxCell>
        <mxCell id="Ib7XOItrtZM7JdyORI7V-202" value="- selectedSimulator:&amp;nbsp;string" style="text;strokeColor=none;fillColor=none;align=left;verticalAlign=top;spacingLeft=4;spacingRight=4;overflow=hidden;rotatable=0;points=[[0,0.5],[1,0.5]];portConstraint=eastwest;whiteSpace=wrap;html=1;" vertex="1" parent="Ib7XOItrtZM7JdyORI7V-189">
          <mxGeometry y="182" width="350" height="26" as="geometry" />
        </mxCell>
        <mxCell id="Ib7XOItrtZM7JdyORI7V-203" value="- answer:&amp;nbsp;string" style="text;strokeColor=none;fillColor=none;align=left;verticalAlign=top;spacingLeft=4;spacingRight=4;overflow=hidden;rotatable=0;points=[[0,0.5],[1,0.5]];portConstraint=eastwest;whiteSpace=wrap;html=1;" vertex="1" parent="Ib7XOItrtZM7JdyORI7V-189">
          <mxGeometry y="208" width="350" height="26" as="geometry" />
        </mxCell>
        <mxCell id="Ib7XOItrtZM7JdyORI7V-204" value="- matrixBD:&amp;nbsp;int[,]" style="text;strokeColor=none;fillColor=none;align=left;verticalAlign=top;spacingLeft=4;spacingRight=4;overflow=hidden;rotatable=0;points=[[0,0.5],[1,0.5]];portConstraint=eastwest;whiteSpace=wrap;html=1;" vertex="1" parent="Ib7XOItrtZM7JdyORI7V-189">
          <mxGeometry y="234" width="350" height="26" as="geometry" />
        </mxCell>
        <mxCell id="Ib7XOItrtZM7JdyORI7V-205" value="- idTask:&amp;nbsp;int" style="text;strokeColor=none;fillColor=none;align=left;verticalAlign=top;spacingLeft=4;spacingRight=4;overflow=hidden;rotatable=0;points=[[0,0.5],[1,0.5]];portConstraint=eastwest;whiteSpace=wrap;html=1;" vertex="1" parent="Ib7XOItrtZM7JdyORI7V-189">
          <mxGeometry y="260" width="350" height="26" as="geometry" />
        </mxCell>
        <mxCell id="Ib7XOItrtZM7JdyORI7V-193" value="" style="line;html=1;strokeWidth=1;align=left;verticalAlign=middle;spacingTop=-1;spacingLeft=3;spacingRight=3;rotatable=0;labelPosition=right;points=[];portConstraint=eastwest;" vertex="1" parent="Ib7XOItrtZM7JdyORI7V-189">
          <mxGeometry y="286" width="350" height="8" as="geometry" />
        </mxCell>
        <mxCell id="Ib7XOItrtZM7JdyORI7V-194" value="+ CountRows(): int&#xa;+ CountRows(value: int): void" style="text;align=left;verticalAlign=top;spacingLeft=4;spacingRight=4;overflow=hidden;rotatable=0;points=[[0,0.5],[1,0.5]];portConstraint=eastwest;" vertex="1" parent="Ib7XOItrtZM7JdyORI7V-189">
          <mxGeometry y="294" width="350" height="40" as="geometry" />
        </mxCell>
        <mxCell id="Ib7XOItrtZM7JdyORI7V-195" value="+ CountColumns(): int&#xa;+ CountColumns(value: int): void" style="text;align=left;verticalAlign=top;spacingLeft=4;spacingRight=4;overflow=hidden;rotatable=0;points=[[0,0.5],[1,0.5]];portConstraint=eastwest;" vertex="1" parent="Ib7XOItrtZM7JdyORI7V-189">
          <mxGeometry y="334" width="350" height="40" as="geometry" />
        </mxCell>
        <mxCell id="Ib7XOItrtZM7JdyORI7V-196" value="+ Matrix(): StackPanel&#xa;+ Matrix(value: StackPanel): void" style="text;align=left;verticalAlign=top;spacingLeft=4;spacingRight=4;overflow=hidden;rotatable=0;points=[[0,0.5],[1,0.5]];portConstraint=eastwest;" vertex="1" parent="Ib7XOItrtZM7JdyORI7V-189">
          <mxGeometry y="374" width="350" height="40" as="geometry" />
        </mxCell>
        <mxCell id="Ib7XOItrtZM7JdyORI7V-207" value="+ IsVisibleEnterMatrix(): bool&#xa;+ IsVisibleEnterMatrix(value: bool): void" style="text;align=left;verticalAlign=top;spacingLeft=4;spacingRight=4;overflow=hidden;rotatable=0;points=[[0,0.5],[1,0.5]];portConstraint=eastwest;" vertex="1" parent="Ib7XOItrtZM7JdyORI7V-189">
          <mxGeometry y="414" width="350" height="40" as="geometry" />
        </mxCell>
        <mxCell id="Ib7XOItrtZM7JdyORI7V-206" value="+ ListSimulators(): List&lt;Simulator&gt;&#xa;+ ListSimulators(value: List&lt;Simulator&gt;): void" style="text;align=left;verticalAlign=top;spacingLeft=4;spacingRight=4;overflow=hidden;rotatable=0;points=[[0,0.5],[1,0.5]];portConstraint=eastwest;" vertex="1" parent="Ib7XOItrtZM7JdyORI7V-189">
          <mxGeometry y="454" width="350" height="40" as="geometry" />
        </mxCell>
        <mxCell id="Ib7XOItrtZM7JdyORI7V-208" value="+ ListSimulatorsView(): List&lt;string&gt;&#xa;+ ListSimulatorsView(value: List&lt;string&gt;): void" style="text;align=left;verticalAlign=top;spacingLeft=4;spacingRight=4;overflow=hidden;rotatable=0;points=[[0,0.5],[1,0.5]];portConstraint=eastwest;" vertex="1" parent="Ib7XOItrtZM7JdyORI7V-189">
          <mxGeometry y="494" width="350" height="40" as="geometry" />
        </mxCell>
        <mxCell id="Ib7XOItrtZM7JdyORI7V-209" value="+ SelectedSimulator(): string&#xa;+ SelectedSimulator(value: string): void" style="text;align=left;verticalAlign=top;spacingLeft=4;spacingRight=4;overflow=hidden;rotatable=0;points=[[0,0.5],[1,0.5]];portConstraint=eastwest;" vertex="1" parent="Ib7XOItrtZM7JdyORI7V-189">
          <mxGeometry y="534" width="350" height="40" as="geometry" />
        </mxCell>
        <mxCell id="Ib7XOItrtZM7JdyORI7V-210" value="+ Answer(): string&#xa;+ Answer(value: string): void" style="text;align=left;verticalAlign=top;spacingLeft=4;spacingRight=4;overflow=hidden;rotatable=0;points=[[0,0.5],[1,0.5]];portConstraint=eastwest;" vertex="1" parent="Ib7XOItrtZM7JdyORI7V-189">
          <mxGeometry y="574" width="350" height="40" as="geometry" />
        </mxCell>
        <mxCell id="Ib7XOItrtZM7JdyORI7V-197" value="+ CreateTask(): void" style="text;align=left;verticalAlign=top;spacingLeft=4;spacingRight=4;overflow=hidden;rotatable=0;points=[[0,0.5],[1,0.5]];portConstraint=eastwest;" vertex="1" parent="Ib7XOItrtZM7JdyORI7V-189">
          <mxGeometry y="614" width="350" height="26" as="geometry" />
        </mxCell>
        <mxCell id="Ib7XOItrtZM7JdyORI7V-198" value="+ EnterMatrix(): void" style="text;align=left;verticalAlign=top;spacingLeft=4;spacingRight=4;overflow=hidden;rotatable=0;points=[[0,0.5],[1,0.5]];portConstraint=eastwest;" vertex="1" parent="Ib7XOItrtZM7JdyORI7V-189">
          <mxGeometry y="640" width="350" height="26" as="geometry" />
        </mxCell>
        <mxCell id="Ib7XOItrtZM7JdyORI7V-211" value="+ AttachFileClick(): void" style="text;align=left;verticalAlign=top;spacingLeft=4;spacingRight=4;overflow=hidden;rotatable=0;points=[[0,0.5],[1,0.5]];portConstraint=eastwest;" vertex="1" parent="Ib7XOItrtZM7JdyORI7V-189">
          <mxGeometry y="666" width="350" height="26" as="geometry" />
        </mxCell>
        <mxCell id="Ib7XOItrtZM7JdyORI7V-213" value="+ ShowMatrix(taskMatrix: int[,]): void" style="text;align=left;verticalAlign=top;spacingLeft=4;spacingRight=4;overflow=hidden;rotatable=0;points=[[0,0.5],[1,0.5]];portConstraint=eastwest;" vertex="1" parent="Ib7XOItrtZM7JdyORI7V-189">
          <mxGeometry y="692" width="350" height="26" as="geometry" />
        </mxCell>
        <mxCell id="Ib7XOItrtZM7JdyORI7V-214" value="+ ReadFilesToTwoArray(stream: Stream): void" style="text;align=left;verticalAlign=top;spacingLeft=4;spacingRight=4;overflow=hidden;rotatable=0;points=[[0,0.5],[1,0.5]];portConstraint=eastwest;" vertex="1" parent="Ib7XOItrtZM7JdyORI7V-189">
          <mxGeometry y="718" width="350" height="26" as="geometry" />
        </mxCell>
        <mxCell id="Ib7XOItrtZM7JdyORI7V-361" style="edgeStyle=orthogonalEdgeStyle;rounded=0;orthogonalLoop=1;jettySize=auto;html=1;" edge="1" parent="1" source="Ib7XOItrtZM7JdyORI7V-215" target="Ib7XOItrtZM7JdyORI7V-138">
          <mxGeometry relative="1" as="geometry">
            <Array as="points">
              <mxPoint x="1805" y="-1250" />
              <mxPoint x="1210" y="-1250" />
              <mxPoint x="1210" y="-1113" />
            </Array>
          </mxGeometry>
        </mxCell>
        <mxCell id="Ib7XOItrtZM7JdyORI7V-215" value="MenuNavigationViewModel" style="swimlane;fontStyle=2;align=center;verticalAlign=top;childLayout=stackLayout;horizontal=1;startSize=26;horizontalStack=0;resizeParent=1;resizeLast=0;collapsible=1;marginBottom=0;rounded=0;shadow=0;strokeWidth=1;" vertex="1" parent="1">
          <mxGeometry x="1630" y="-1230" width="350" height="120" as="geometry">
            <mxRectangle x="220" y="120" width="160" height="26" as="alternateBounds" />
          </mxGeometry>
        </mxCell>
        <mxCell id="Ib7XOItrtZM7JdyORI7V-219" value="" style="line;html=1;strokeWidth=1;align=left;verticalAlign=middle;spacingTop=-1;spacingLeft=3;spacingRight=3;rotatable=0;labelPosition=right;points=[];portConstraint=eastwest;" vertex="1" parent="Ib7XOItrtZM7JdyORI7V-215">
          <mxGeometry y="26" width="350" height="8" as="geometry" />
        </mxCell>
        <mxCell id="Ib7XOItrtZM7JdyORI7V-223" value="+ GetPageAccount(): void" style="text;align=left;verticalAlign=top;spacingLeft=4;spacingRight=4;overflow=hidden;rotatable=0;points=[[0,0.5],[1,0.5]];portConstraint=eastwest;" vertex="1" parent="Ib7XOItrtZM7JdyORI7V-215">
          <mxGeometry y="34" width="350" height="26" as="geometry" />
        </mxCell>
        <mxCell id="Ib7XOItrtZM7JdyORI7V-224" value="+ GetPageSimulators(): void" style="text;align=left;verticalAlign=top;spacingLeft=4;spacingRight=4;overflow=hidden;rotatable=0;points=[[0,0.5],[1,0.5]];portConstraint=eastwest;" vertex="1" parent="Ib7XOItrtZM7JdyORI7V-215">
          <mxGeometry y="60" width="350" height="26" as="geometry" />
        </mxCell>
        <mxCell id="Ib7XOItrtZM7JdyORI7V-225" value="+ GetPageStatistics(): void" style="text;align=left;verticalAlign=top;spacingLeft=4;spacingRight=4;overflow=hidden;rotatable=0;points=[[0,0.5],[1,0.5]];portConstraint=eastwest;" vertex="1" parent="Ib7XOItrtZM7JdyORI7V-215">
          <mxGeometry y="86" width="350" height="26" as="geometry" />
        </mxCell>
        <mxCell id="Ib7XOItrtZM7JdyORI7V-364" style="edgeStyle=orthogonalEdgeStyle;rounded=0;orthogonalLoop=1;jettySize=auto;html=1;endArrow=none;endFill=0;exitX=0.528;exitY=1.049;exitDx=0;exitDy=0;exitPerimeter=0;" edge="1" parent="1" source="Ib7XOItrtZM7JdyORI7V-265">
          <mxGeometry relative="1" as="geometry">
            <mxPoint x="1210" y="-880.0019047619048" as="targetPoint" />
            <mxPoint x="1800" y="-160" as="sourcePoint" />
            <Array as="points">
              <mxPoint x="1805" y="-160" />
              <mxPoint x="1210" y="-160" />
            </Array>
          </mxGeometry>
        </mxCell>
        <mxCell id="Ib7XOItrtZM7JdyORI7V-392" style="edgeStyle=orthogonalEdgeStyle;rounded=0;orthogonalLoop=1;jettySize=auto;html=1;exitX=0.75;exitY=0;exitDx=0;exitDy=0;entryX=1;entryY=0.5;entryDx=0;entryDy=0;endArrow=diamondThin;endFill=1;" edge="1" parent="1" source="Ib7XOItrtZM7JdyORI7V-233" target="Ib7XOItrtZM7JdyORI7V-390">
          <mxGeometry relative="1" as="geometry" />
        </mxCell>
        <mxCell id="Ib7XOItrtZM7JdyORI7V-233" value="RegistrationViewModel" style="swimlane;fontStyle=2;align=center;verticalAlign=top;childLayout=stackLayout;horizontal=1;startSize=26;horizontalStack=0;resizeParent=1;resizeLast=0;collapsible=1;marginBottom=0;rounded=0;shadow=0;strokeWidth=1;" vertex="1" parent="1">
          <mxGeometry x="1620" y="-870" width="350" height="680" as="geometry">
            <mxRectangle x="220" y="120" width="160" height="26" as="alternateBounds" />
          </mxGeometry>
        </mxCell>
        <mxCell id="Ib7XOItrtZM7JdyORI7V-234" value="- surname:&amp;nbsp;string" style="text;strokeColor=none;fillColor=none;align=left;verticalAlign=top;spacingLeft=4;spacingRight=4;overflow=hidden;rotatable=0;points=[[0,0.5],[1,0.5]];portConstraint=eastwest;whiteSpace=wrap;html=1;" vertex="1" parent="Ib7XOItrtZM7JdyORI7V-233">
          <mxGeometry y="26" width="350" height="26" as="geometry" />
        </mxCell>
        <mxCell id="Ib7XOItrtZM7JdyORI7V-235" value="- name:&amp;nbsp;string" style="text;strokeColor=none;fillColor=none;align=left;verticalAlign=top;spacingLeft=4;spacingRight=4;overflow=hidden;rotatable=0;points=[[0,0.5],[1,0.5]];portConstraint=eastwest;whiteSpace=wrap;html=1;" vertex="1" parent="Ib7XOItrtZM7JdyORI7V-233">
          <mxGeometry y="52" width="350" height="26" as="geometry" />
        </mxCell>
        <mxCell id="Ib7XOItrtZM7JdyORI7V-236" value="- patronymic:&amp;nbsp;string" style="text;strokeColor=none;fillColor=none;align=left;verticalAlign=top;spacingLeft=4;spacingRight=4;overflow=hidden;rotatable=0;points=[[0,0.5],[1,0.5]];portConstraint=eastwest;whiteSpace=wrap;html=1;" vertex="1" parent="Ib7XOItrtZM7JdyORI7V-233">
          <mxGeometry y="78" width="350" height="26" as="geometry" />
        </mxCell>
        <mxCell id="Ib7XOItrtZM7JdyORI7V-254" value="- telephone:&amp;nbsp;string" style="text;strokeColor=none;fillColor=none;align=left;verticalAlign=top;spacingLeft=4;spacingRight=4;overflow=hidden;rotatable=0;points=[[0,0.5],[1,0.5]];portConstraint=eastwest;whiteSpace=wrap;html=1;" vertex="1" parent="Ib7XOItrtZM7JdyORI7V-233">
          <mxGeometry y="104" width="350" height="26" as="geometry" />
        </mxCell>
        <mxCell id="Ib7XOItrtZM7JdyORI7V-253" value="- email:&amp;nbsp;string" style="text;strokeColor=none;fillColor=none;align=left;verticalAlign=top;spacingLeft=4;spacingRight=4;overflow=hidden;rotatable=0;points=[[0,0.5],[1,0.5]];portConstraint=eastwest;whiteSpace=wrap;html=1;" vertex="1" parent="Ib7XOItrtZM7JdyORI7V-233">
          <mxGeometry y="130" width="350" height="26" as="geometry" />
        </mxCell>
        <mxCell id="Ib7XOItrtZM7JdyORI7V-256" value="- login:&amp;nbsp;string" style="text;strokeColor=none;fillColor=none;align=left;verticalAlign=top;spacingLeft=4;spacingRight=4;overflow=hidden;rotatable=0;points=[[0,0.5],[1,0.5]];portConstraint=eastwest;whiteSpace=wrap;html=1;" vertex="1" parent="Ib7XOItrtZM7JdyORI7V-233">
          <mxGeometry y="156" width="350" height="26" as="geometry" />
        </mxCell>
        <mxCell id="Ib7XOItrtZM7JdyORI7V-255" value="- message:&amp;nbsp;string" style="text;strokeColor=none;fillColor=none;align=left;verticalAlign=top;spacingLeft=4;spacingRight=4;overflow=hidden;rotatable=0;points=[[0,0.5],[1,0.5]];portConstraint=eastwest;whiteSpace=wrap;html=1;" vertex="1" parent="Ib7XOItrtZM7JdyORI7V-233">
          <mxGeometry y="182" width="350" height="26" as="geometry" />
        </mxCell>
        <mxCell id="Ib7XOItrtZM7JdyORI7V-257" value="- selectRole:&amp;nbsp;string" style="text;strokeColor=none;fillColor=none;align=left;verticalAlign=top;spacingLeft=4;spacingRight=4;overflow=hidden;rotatable=0;points=[[0,0.5],[1,0.5]];portConstraint=eastwest;whiteSpace=wrap;html=1;" vertex="1" parent="Ib7XOItrtZM7JdyORI7V-233">
          <mxGeometry y="208" width="350" height="26" as="geometry" />
        </mxCell>
        <mxCell id="Ib7XOItrtZM7JdyORI7V-237" value="" style="line;html=1;strokeWidth=1;align=left;verticalAlign=middle;spacingTop=-1;spacingLeft=3;spacingRight=3;rotatable=0;labelPosition=right;points=[];portConstraint=eastwest;" vertex="1" parent="Ib7XOItrtZM7JdyORI7V-233">
          <mxGeometry y="234" width="350" height="8" as="geometry" />
        </mxCell>
        <mxCell id="Ib7XOItrtZM7JdyORI7V-238" value="+ Surname(): string&#xa;+ Surname(value: string): void" style="text;align=left;verticalAlign=top;spacingLeft=4;spacingRight=4;overflow=hidden;rotatable=0;points=[[0,0.5],[1,0.5]];portConstraint=eastwest;" vertex="1" parent="Ib7XOItrtZM7JdyORI7V-233">
          <mxGeometry y="242" width="350" height="40" as="geometry" />
        </mxCell>
        <mxCell id="Ib7XOItrtZM7JdyORI7V-239" value="+ Name(): string&#xa;+ Name(value: string): void" style="text;align=left;verticalAlign=top;spacingLeft=4;spacingRight=4;overflow=hidden;rotatable=0;points=[[0,0.5],[1,0.5]];portConstraint=eastwest;" vertex="1" parent="Ib7XOItrtZM7JdyORI7V-233">
          <mxGeometry y="282" width="350" height="40" as="geometry" />
        </mxCell>
        <mxCell id="Ib7XOItrtZM7JdyORI7V-240" value="+ Patronymic(): string&#xa;+ Patronymic(value: string): void" style="text;align=left;verticalAlign=top;spacingLeft=4;spacingRight=4;overflow=hidden;rotatable=0;points=[[0,0.5],[1,0.5]];portConstraint=eastwest;" vertex="1" parent="Ib7XOItrtZM7JdyORI7V-233">
          <mxGeometry y="322" width="350" height="40" as="geometry" />
        </mxCell>
        <mxCell id="Ib7XOItrtZM7JdyORI7V-259" value="+ Telephone(): string&#xa;+ Telephone(value: string): void" style="text;align=left;verticalAlign=top;spacingLeft=4;spacingRight=4;overflow=hidden;rotatable=0;points=[[0,0.5],[1,0.5]];portConstraint=eastwest;" vertex="1" parent="Ib7XOItrtZM7JdyORI7V-233">
          <mxGeometry y="362" width="350" height="40" as="geometry" />
        </mxCell>
        <mxCell id="Ib7XOItrtZM7JdyORI7V-260" value="+ Email(): string&#xa;+ Email(value: string): void" style="text;align=left;verticalAlign=top;spacingLeft=4;spacingRight=4;overflow=hidden;rotatable=0;points=[[0,0.5],[1,0.5]];portConstraint=eastwest;" vertex="1" parent="Ib7XOItrtZM7JdyORI7V-233">
          <mxGeometry y="402" width="350" height="40" as="geometry" />
        </mxCell>
        <mxCell id="Ib7XOItrtZM7JdyORI7V-261" value="+ Login(): string&#xa;+ Login(value: string): void" style="text;align=left;verticalAlign=top;spacingLeft=4;spacingRight=4;overflow=hidden;rotatable=0;points=[[0,0.5],[1,0.5]];portConstraint=eastwest;" vertex="1" parent="Ib7XOItrtZM7JdyORI7V-233">
          <mxGeometry y="442" width="350" height="40" as="geometry" />
        </mxCell>
        <mxCell id="Ib7XOItrtZM7JdyORI7V-262" value="+ Password(): string&#xa;+ Password(value: string): void" style="text;align=left;verticalAlign=top;spacingLeft=4;spacingRight=4;overflow=hidden;rotatable=0;points=[[0,0.5],[1,0.5]];portConstraint=eastwest;" vertex="1" parent="Ib7XOItrtZM7JdyORI7V-233">
          <mxGeometry y="482" width="350" height="40" as="geometry" />
        </mxCell>
        <mxCell id="Ib7XOItrtZM7JdyORI7V-263" value="+ Roles(): List&lt;Role&gt;&#xa;+ Roles(value: List&lt;Role&gt;): void" style="text;align=left;verticalAlign=top;spacingLeft=4;spacingRight=4;overflow=hidden;rotatable=0;points=[[0,0.5],[1,0.5]];portConstraint=eastwest;" vertex="1" parent="Ib7XOItrtZM7JdyORI7V-233">
          <mxGeometry y="522" width="350" height="40" as="geometry" />
        </mxCell>
        <mxCell id="Ib7XOItrtZM7JdyORI7V-264" value="+ SelectRole(): Role&#xa;+ SelectRole(value: Role): void" style="text;align=left;verticalAlign=top;spacingLeft=4;spacingRight=4;overflow=hidden;rotatable=0;points=[[0,0.5],[1,0.5]];portConstraint=eastwest;" vertex="1" parent="Ib7XOItrtZM7JdyORI7V-233">
          <mxGeometry y="562" width="350" height="40" as="geometry" />
        </mxCell>
        <mxCell id="Ib7XOItrtZM7JdyORI7V-242" value="+ GoToAuthorization(): void" style="text;align=left;verticalAlign=top;spacingLeft=4;spacingRight=4;overflow=hidden;rotatable=0;points=[[0,0.5],[1,0.5]];portConstraint=eastwest;" vertex="1" parent="Ib7XOItrtZM7JdyORI7V-233">
          <mxGeometry y="602" width="350" height="26" as="geometry" />
        </mxCell>
        <mxCell id="Ib7XOItrtZM7JdyORI7V-241" value="+ CheckRegistration(): void" style="text;align=left;verticalAlign=top;spacingLeft=4;spacingRight=4;overflow=hidden;rotatable=0;points=[[0,0.5],[1,0.5]];portConstraint=eastwest;" vertex="1" parent="Ib7XOItrtZM7JdyORI7V-233">
          <mxGeometry y="628" width="350" height="26" as="geometry" />
        </mxCell>
        <mxCell id="Ib7XOItrtZM7JdyORI7V-265" value="+ IsTrueData(): void" style="text;align=left;verticalAlign=top;spacingLeft=4;spacingRight=4;overflow=hidden;rotatable=0;points=[[0,0.5],[1,0.5]];portConstraint=eastwest;" vertex="1" parent="Ib7XOItrtZM7JdyORI7V-233">
          <mxGeometry y="654" width="350" height="26" as="geometry" />
        </mxCell>
        <mxCell id="Ib7XOItrtZM7JdyORI7V-268" value="SimulatorTaskView" style="swimlane;fontStyle=2;align=center;verticalAlign=top;childLayout=stackLayout;horizontal=1;startSize=26;horizontalStack=0;resizeParent=1;resizeLast=0;collapsible=1;marginBottom=0;rounded=0;shadow=0;strokeWidth=1;" vertex="1" parent="1">
          <mxGeometry x="2020" y="-830" width="180" height="190" as="geometry">
            <mxRectangle x="220" y="120" width="160" height="26" as="alternateBounds" />
          </mxGeometry>
        </mxCell>
        <mxCell id="Ib7XOItrtZM7JdyORI7V-269" value="+ Id: int" style="text;strokeColor=none;fillColor=none;align=left;verticalAlign=top;spacingLeft=4;spacingRight=4;overflow=hidden;rotatable=0;points=[[0,0.5],[1,0.5]];portConstraint=eastwest;whiteSpace=wrap;html=1;" vertex="1" parent="Ib7XOItrtZM7JdyORI7V-268">
          <mxGeometry y="26" width="180" height="26" as="geometry" />
        </mxCell>
        <mxCell id="Ib7XOItrtZM7JdyORI7V-270" value="+ Zadanie: string&#xa;" style="text;align=left;verticalAlign=top;spacingLeft=4;spacingRight=4;overflow=hidden;rotatable=0;points=[[0,0.5],[1,0.5]];portConstraint=eastwest;" vertex="1" parent="Ib7XOItrtZM7JdyORI7V-268">
          <mxGeometry y="52" width="180" height="26" as="geometry" />
        </mxCell>
        <mxCell id="Ib7XOItrtZM7JdyORI7V-271" value="+ Task: string" style="text;strokeColor=none;fillColor=none;align=left;verticalAlign=top;spacingLeft=4;spacingRight=4;overflow=hidden;rotatable=0;points=[[0,0.5],[1,0.5]];portConstraint=eastwest;whiteSpace=wrap;html=1;" vertex="1" parent="Ib7XOItrtZM7JdyORI7V-268">
          <mxGeometry y="78" width="180" height="26" as="geometry" />
        </mxCell>
        <mxCell id="Ib7XOItrtZM7JdyORI7V-272" value="+ ZadanieMatrix: string" style="text;strokeColor=none;fillColor=none;align=left;verticalAlign=top;spacingLeft=4;spacingRight=4;overflow=hidden;rotatable=0;points=[[0,0.5],[1,0.5]];portConstraint=eastwest;whiteSpace=wrap;html=1;" vertex="1" parent="Ib7XOItrtZM7JdyORI7V-268">
          <mxGeometry y="104" width="180" height="26" as="geometry" />
        </mxCell>
        <mxCell id="Ib7XOItrtZM7JdyORI7V-273" value="+ Matrix: int[,]" style="text;strokeColor=none;fillColor=none;align=left;verticalAlign=top;spacingLeft=4;spacingRight=4;overflow=hidden;rotatable=0;points=[[0,0.5],[1,0.5]];portConstraint=eastwest;whiteSpace=wrap;html=1;" vertex="1" parent="Ib7XOItrtZM7JdyORI7V-268">
          <mxGeometry y="130" width="180" height="26" as="geometry" />
        </mxCell>
        <mxCell id="Ib7XOItrtZM7JdyORI7V-274" value="+ Answer: string" style="text;strokeColor=none;fillColor=none;align=left;verticalAlign=top;spacingLeft=4;spacingRight=4;overflow=hidden;rotatable=0;points=[[0,0.5],[1,0.5]];portConstraint=eastwest;whiteSpace=wrap;html=1;" vertex="1" parent="Ib7XOItrtZM7JdyORI7V-268">
          <mxGeometry y="156" width="180" height="26" as="geometry" />
        </mxCell>
        <mxCell id="Ib7XOItrtZM7JdyORI7V-280" value="" style="line;html=1;strokeWidth=1;align=left;verticalAlign=middle;spacingTop=-1;spacingLeft=3;spacingRight=3;rotatable=0;labelPosition=right;points=[];portConstraint=eastwest;" vertex="1" parent="Ib7XOItrtZM7JdyORI7V-268">
          <mxGeometry y="182" width="180" height="8" as="geometry" />
        </mxCell>
        <mxCell id="Ib7XOItrtZM7JdyORI7V-362" style="edgeStyle=orthogonalEdgeStyle;rounded=0;orthogonalLoop=1;jettySize=auto;html=1;exitX=0.5;exitY=0;exitDx=0;exitDy=0;endArrow=none;endFill=0;" edge="1" parent="1" source="Ib7XOItrtZM7JdyORI7V-281">
          <mxGeometry relative="1" as="geometry">
            <mxPoint x="1800" y="-1250" as="targetPoint" />
            <Array as="points">
              <mxPoint x="2195" y="-1250" />
            </Array>
          </mxGeometry>
        </mxCell>
        <mxCell id="Ib7XOItrtZM7JdyORI7V-371" style="edgeStyle=orthogonalEdgeStyle;rounded=0;orthogonalLoop=1;jettySize=auto;html=1;exitX=0.75;exitY=1;exitDx=0;exitDy=0;entryX=1;entryY=0.5;entryDx=0;entryDy=0;dashed=1;dashPattern=8 8;" edge="1" parent="1" source="Ib7XOItrtZM7JdyORI7V-281" target="Ib7XOItrtZM7JdyORI7V-272">
          <mxGeometry relative="1" as="geometry" />
        </mxCell>
        <mxCell id="Ib7XOItrtZM7JdyORI7V-281" value="SimulatorsViewModel" style="swimlane;fontStyle=2;align=center;verticalAlign=top;childLayout=stackLayout;horizontal=1;startSize=26;horizontalStack=0;resizeParent=1;resizeLast=0;collapsible=1;marginBottom=0;rounded=0;shadow=0;strokeWidth=1;" vertex="1" parent="1">
          <mxGeometry x="2020" y="-1230" width="350" height="375" as="geometry">
            <mxRectangle x="220" y="120" width="160" height="26" as="alternateBounds" />
          </mxGeometry>
        </mxCell>
        <mxCell id="Ib7XOItrtZM7JdyORI7V-282" value="- listSimulatorsTaskTeacher:&amp;nbsp;List&amp;lt;SimulatorTask&amp;gt;" style="text;strokeColor=none;fillColor=none;align=left;verticalAlign=top;spacingLeft=4;spacingRight=4;overflow=hidden;rotatable=0;points=[[0,0.5],[1,0.5]];portConstraint=eastwest;whiteSpace=wrap;html=1;" vertex="1" parent="Ib7XOItrtZM7JdyORI7V-281">
          <mxGeometry y="26" width="350" height="26" as="geometry" />
        </mxCell>
        <mxCell id="Ib7XOItrtZM7JdyORI7V-283" value="- listTaskTeacherView:&amp;nbsp;List&amp;lt;SimulatorTaskView&amp;gt;" style="text;strokeColor=none;fillColor=none;align=left;verticalAlign=top;spacingLeft=4;spacingRight=4;overflow=hidden;rotatable=0;points=[[0,0.5],[1,0.5]];portConstraint=eastwest;whiteSpace=wrap;html=1;" vertex="1" parent="Ib7XOItrtZM7JdyORI7V-281">
          <mxGeometry y="52" width="350" height="26" as="geometry" />
        </mxCell>
        <mxCell id="Ib7XOItrtZM7JdyORI7V-284" value="- tasks:&amp;nbsp;&amp;nbsp;List&amp;lt;int&amp;gt;" style="text;strokeColor=none;fillColor=none;align=left;verticalAlign=top;spacingLeft=4;spacingRight=4;overflow=hidden;rotatable=0;points=[[0,0.5],[1,0.5]];portConstraint=eastwest;whiteSpace=wrap;html=1;" vertex="1" parent="Ib7XOItrtZM7JdyORI7V-281">
          <mxGeometry y="78" width="350" height="26" as="geometry" />
        </mxCell>
        <mxCell id="Ib7XOItrtZM7JdyORI7V-285" value="- taskSelected:&amp;nbsp;int" style="text;strokeColor=none;fillColor=none;align=left;verticalAlign=top;spacingLeft=4;spacingRight=4;overflow=hidden;rotatable=0;points=[[0,0.5],[1,0.5]];portConstraint=eastwest;whiteSpace=wrap;html=1;" vertex="1" parent="Ib7XOItrtZM7JdyORI7V-281">
          <mxGeometry y="104" width="350" height="26" as="geometry" />
        </mxCell>
        <mxCell id="Ib7XOItrtZM7JdyORI7V-286" value="- listSimulators:&amp;nbsp;List&amp;lt;Simulator&amp;gt;" style="text;strokeColor=none;fillColor=none;align=left;verticalAlign=top;spacingLeft=4;spacingRight=4;overflow=hidden;rotatable=0;points=[[0,0.5],[1,0.5]];portConstraint=eastwest;whiteSpace=wrap;html=1;" vertex="1" parent="Ib7XOItrtZM7JdyORI7V-281">
          <mxGeometry y="130" width="350" height="26" as="geometry" />
        </mxCell>
        <mxCell id="Ib7XOItrtZM7JdyORI7V-290" value="" style="line;html=1;strokeWidth=1;align=left;verticalAlign=middle;spacingTop=-1;spacingLeft=3;spacingRight=3;rotatable=0;labelPosition=right;points=[];portConstraint=eastwest;" vertex="1" parent="Ib7XOItrtZM7JdyORI7V-281">
          <mxGeometry y="156" width="350" height="8" as="geometry" />
        </mxCell>
        <mxCell id="Ib7XOItrtZM7JdyORI7V-291" value="+ ListTaskTeacherView(): List&lt;SimulatorTaskView&gt;&#xa;+ ListTaskTeacherView(value: List&lt;SimulatorTaskView&gt;): void" style="text;align=left;verticalAlign=top;spacingLeft=4;spacingRight=4;overflow=hidden;rotatable=0;points=[[0,0.5],[1,0.5]];portConstraint=eastwest;" vertex="1" parent="Ib7XOItrtZM7JdyORI7V-281">
          <mxGeometry y="164" width="350" height="40" as="geometry" />
        </mxCell>
        <mxCell id="Ib7XOItrtZM7JdyORI7V-292" value="+ Tasks(): List&lt;int&gt;&#xa;+ Tasks(value: List&lt;int&gt;): void" style="text;align=left;verticalAlign=top;spacingLeft=4;spacingRight=4;overflow=hidden;rotatable=0;points=[[0,0.5],[1,0.5]];portConstraint=eastwest;" vertex="1" parent="Ib7XOItrtZM7JdyORI7V-281">
          <mxGeometry y="204" width="350" height="40" as="geometry" />
        </mxCell>
        <mxCell id="Ib7XOItrtZM7JdyORI7V-293" value="+ TaskSelected(): int&#xa;+ TaskSelected(value: int): void" style="text;align=left;verticalAlign=top;spacingLeft=4;spacingRight=4;overflow=hidden;rotatable=0;points=[[0,0.5],[1,0.5]];portConstraint=eastwest;" vertex="1" parent="Ib7XOItrtZM7JdyORI7V-281">
          <mxGeometry y="244" width="350" height="40" as="geometry" />
        </mxCell>
        <mxCell id="Ib7XOItrtZM7JdyORI7V-300" value="+ DeleteTask(): void" style="text;align=left;verticalAlign=top;spacingLeft=4;spacingRight=4;overflow=hidden;rotatable=0;points=[[0,0.5],[1,0.5]];portConstraint=eastwest;" vertex="1" parent="Ib7XOItrtZM7JdyORI7V-281">
          <mxGeometry y="284" width="350" height="26" as="geometry" />
        </mxCell>
        <mxCell id="Ib7XOItrtZM7JdyORI7V-301" value="+ UpdateTask(): void" style="text;align=left;verticalAlign=top;spacingLeft=4;spacingRight=4;overflow=hidden;rotatable=0;points=[[0,0.5],[1,0.5]];portConstraint=eastwest;" vertex="1" parent="Ib7XOItrtZM7JdyORI7V-281">
          <mxGeometry y="310" width="350" height="26" as="geometry" />
        </mxCell>
        <mxCell id="Ib7XOItrtZM7JdyORI7V-302" value="- GetSimulatorsTaskTeacher(): void" style="text;align=left;verticalAlign=top;spacingLeft=4;spacingRight=4;overflow=hidden;rotatable=0;points=[[0,0.5],[1,0.5]];portConstraint=eastwest;" vertex="1" parent="Ib7XOItrtZM7JdyORI7V-281">
          <mxGeometry y="336" width="350" height="26" as="geometry" />
        </mxCell>
        <mxCell id="Ib7XOItrtZM7JdyORI7V-368" style="edgeStyle=orthogonalEdgeStyle;rounded=0;orthogonalLoop=1;jettySize=auto;html=1;exitX=0.5;exitY=1;exitDx=0;exitDy=0;endArrow=none;endFill=0;" edge="1" parent="1">
          <mxGeometry relative="1" as="geometry">
            <mxPoint x="1800" y="-160" as="targetPoint" />
            <mxPoint x="2185" y="-190" as="sourcePoint" />
            <Array as="points">
              <mxPoint x="2185" y="-160" />
            </Array>
          </mxGeometry>
        </mxCell>
        <mxCell id="Ib7XOItrtZM7JdyORI7V-370" style="edgeStyle=orthogonalEdgeStyle;rounded=0;orthogonalLoop=1;jettySize=auto;html=1;exitX=0.75;exitY=0;exitDx=0;exitDy=0;dashed=1;dashPattern=8 8;" edge="1" parent="1" source="Ib7XOItrtZM7JdyORI7V-303" target="Ib7XOItrtZM7JdyORI7V-325">
          <mxGeometry relative="1" as="geometry" />
        </mxCell>
        <mxCell id="Ib7XOItrtZM7JdyORI7V-398" style="edgeStyle=orthogonalEdgeStyle;rounded=0;orthogonalLoop=1;jettySize=auto;html=1;exitX=1;exitY=0;exitDx=0;exitDy=0;entryX=0.25;entryY=1;entryDx=0;entryDy=0;endArrow=diamondThin;endFill=1;" edge="1" parent="1" source="Ib7XOItrtZM7JdyORI7V-303" target="Ib7XOItrtZM7JdyORI7V-394">
          <mxGeometry relative="1" as="geometry">
            <Array as="points">
              <mxPoint x="2325" y="-420" />
            </Array>
          </mxGeometry>
        </mxCell>
        <mxCell id="Ib7XOItrtZM7JdyORI7V-303" value="StatisticsViewModel" style="swimlane;fontStyle=2;align=center;verticalAlign=top;childLayout=stackLayout;horizontal=1;startSize=26;horizontalStack=0;resizeParent=1;resizeLast=0;collapsible=1;marginBottom=0;rounded=0;shadow=0;strokeWidth=1;" vertex="1" parent="1">
          <mxGeometry x="2020" y="-420" width="350" height="230" as="geometry">
            <mxRectangle x="220" y="120" width="160" height="26" as="alternateBounds" />
          </mxGeometry>
        </mxCell>
        <mxCell id="Ib7XOItrtZM7JdyORI7V-304" value="- series:&amp;nbsp;ISeries[]" style="text;strokeColor=none;fillColor=none;align=left;verticalAlign=top;spacingLeft=4;spacingRight=4;overflow=hidden;rotatable=0;points=[[0,0.5],[1,0.5]];portConstraint=eastwest;whiteSpace=wrap;html=1;" vertex="1" parent="Ib7XOItrtZM7JdyORI7V-303">
          <mxGeometry y="26" width="350" height="26" as="geometry" />
        </mxCell>
        <mxCell id="Ib7XOItrtZM7JdyORI7V-305" value="- allHistory:&amp;nbsp;List&amp;lt;HistoryUser&amp;gt;" style="text;strokeColor=none;fillColor=none;align=left;verticalAlign=top;spacingLeft=4;spacingRight=4;overflow=hidden;rotatable=0;points=[[0,0.5],[1,0.5]];portConstraint=eastwest;whiteSpace=wrap;html=1;" vertex="1" parent="Ib7XOItrtZM7JdyORI7V-303">
          <mxGeometry y="52" width="350" height="26" as="geometry" />
        </mxCell>
        <mxCell id="Ib7XOItrtZM7JdyORI7V-309" value="" style="line;html=1;strokeWidth=1;align=left;verticalAlign=middle;spacingTop=-1;spacingLeft=3;spacingRight=3;rotatable=0;labelPosition=right;points=[];portConstraint=eastwest;" vertex="1" parent="Ib7XOItrtZM7JdyORI7V-303">
          <mxGeometry y="78" width="350" height="8" as="geometry" />
        </mxCell>
        <mxCell id="Ib7XOItrtZM7JdyORI7V-310" value="+ Series(): ISeries[]&#xa;+ Series(value: List&lt;SimulatorTaskView&gt;): void" style="text;align=left;verticalAlign=top;spacingLeft=4;spacingRight=4;overflow=hidden;rotatable=0;points=[[0,0.5],[1,0.5]];portConstraint=eastwest;" vertex="1" parent="Ib7XOItrtZM7JdyORI7V-303">
          <mxGeometry y="86" width="350" height="40" as="geometry" />
        </mxCell>
        <mxCell id="Ib7XOItrtZM7JdyORI7V-311" value="+ AllHistory(): List&lt;HistoryUser&gt;&#xa;+ AllHistory(value: List&lt;HistoryUser&gt;): void" style="text;align=left;verticalAlign=top;spacingLeft=4;spacingRight=4;overflow=hidden;rotatable=0;points=[[0,0.5],[1,0.5]];portConstraint=eastwest;" vertex="1" parent="Ib7XOItrtZM7JdyORI7V-303">
          <mxGeometry y="126" width="350" height="40" as="geometry" />
        </mxCell>
        <mxCell id="Ib7XOItrtZM7JdyORI7V-313" value="+ UserStudent(): void" style="text;align=left;verticalAlign=top;spacingLeft=4;spacingRight=4;overflow=hidden;rotatable=0;points=[[0,0.5],[1,0.5]];portConstraint=eastwest;" vertex="1" parent="Ib7XOItrtZM7JdyORI7V-303">
          <mxGeometry y="166" width="350" height="26" as="geometry" />
        </mxCell>
        <mxCell id="Ib7XOItrtZM7JdyORI7V-314" value="+ UserTeacher(): void" style="text;align=left;verticalAlign=top;spacingLeft=4;spacingRight=4;overflow=hidden;rotatable=0;points=[[0,0.5],[1,0.5]];portConstraint=eastwest;" vertex="1" parent="Ib7XOItrtZM7JdyORI7V-303">
          <mxGeometry y="192" width="350" height="26" as="geometry" />
        </mxCell>
        <mxCell id="Ib7XOItrtZM7JdyORI7V-317" value="HistoryUser" style="swimlane;fontStyle=2;align=center;verticalAlign=top;childLayout=stackLayout;horizontal=1;startSize=26;horizontalStack=0;resizeParent=1;resizeLast=0;collapsible=1;marginBottom=0;rounded=0;shadow=0;strokeWidth=1;" vertex="1" parent="1">
          <mxGeometry x="2020" y="-628" width="180" height="196" as="geometry">
            <mxRectangle x="220" y="120" width="160" height="26" as="alternateBounds" />
          </mxGeometry>
        </mxCell>
        <mxCell id="Ib7XOItrtZM7JdyORI7V-318" value="+ PassageDateTime: DateTime" style="text;strokeColor=none;fillColor=none;align=left;verticalAlign=top;spacingLeft=4;spacingRight=4;overflow=hidden;rotatable=0;points=[[0,0.5],[1,0.5]];portConstraint=eastwest;whiteSpace=wrap;html=1;" vertex="1" parent="Ib7XOItrtZM7JdyORI7V-317">
          <mxGeometry y="26" width="180" height="26" as="geometry" />
        </mxCell>
        <mxCell id="Ib7XOItrtZM7JdyORI7V-319" value="+ Surname: string&#xa;" style="text;align=left;verticalAlign=top;spacingLeft=4;spacingRight=4;overflow=hidden;rotatable=0;points=[[0,0.5],[1,0.5]];portConstraint=eastwest;" vertex="1" parent="Ib7XOItrtZM7JdyORI7V-317">
          <mxGeometry y="52" width="180" height="26" as="geometry" />
        </mxCell>
        <mxCell id="Ib7XOItrtZM7JdyORI7V-325" value="+ Name: string&#xa;" style="text;align=left;verticalAlign=top;spacingLeft=4;spacingRight=4;overflow=hidden;rotatable=0;points=[[0,0.5],[1,0.5]];portConstraint=eastwest;" vertex="1" parent="Ib7XOItrtZM7JdyORI7V-317">
          <mxGeometry y="78" width="180" height="26" as="geometry" />
        </mxCell>
        <mxCell id="Ib7XOItrtZM7JdyORI7V-320" value="+ Login: string" style="text;strokeColor=none;fillColor=none;align=left;verticalAlign=top;spacingLeft=4;spacingRight=4;overflow=hidden;rotatable=0;points=[[0,0.5],[1,0.5]];portConstraint=eastwest;whiteSpace=wrap;html=1;" vertex="1" parent="Ib7XOItrtZM7JdyORI7V-317">
          <mxGeometry y="104" width="180" height="26" as="geometry" />
        </mxCell>
        <mxCell id="Ib7XOItrtZM7JdyORI7V-321" value="+ Result: string" style="text;strokeColor=none;fillColor=none;align=left;verticalAlign=top;spacingLeft=4;spacingRight=4;overflow=hidden;rotatable=0;points=[[0,0.5],[1,0.5]];portConstraint=eastwest;whiteSpace=wrap;html=1;" vertex="1" parent="Ib7XOItrtZM7JdyORI7V-317">
          <mxGeometry y="130" width="180" height="26" as="geometry" />
        </mxCell>
        <mxCell id="Ib7XOItrtZM7JdyORI7V-323" value="+ NameSimulator: string" style="text;strokeColor=none;fillColor=none;align=left;verticalAlign=top;spacingLeft=4;spacingRight=4;overflow=hidden;rotatable=0;points=[[0,0.5],[1,0.5]];portConstraint=eastwest;whiteSpace=wrap;html=1;" vertex="1" parent="Ib7XOItrtZM7JdyORI7V-317">
          <mxGeometry y="156" width="180" height="26" as="geometry" />
        </mxCell>
        <mxCell id="Ib7XOItrtZM7JdyORI7V-324" value="" style="line;html=1;strokeWidth=1;align=left;verticalAlign=middle;spacingTop=-1;spacingLeft=3;spacingRight=3;rotatable=0;labelPosition=right;points=[];portConstraint=eastwest;" vertex="1" parent="Ib7XOItrtZM7JdyORI7V-317">
          <mxGeometry y="182" width="180" height="8" as="geometry" />
        </mxCell>
        <mxCell id="Ib7XOItrtZM7JdyORI7V-369" style="edgeStyle=orthogonalEdgeStyle;rounded=0;orthogonalLoop=1;jettySize=auto;html=1;endArrow=none;endFill=0;" edge="1" parent="1" source="Ib7XOItrtZM7JdyORI7V-328">
          <mxGeometry relative="1" as="geometry">
            <mxPoint x="2160" y="-160" as="targetPoint" />
            <Array as="points">
              <mxPoint x="2565" y="-160" />
            </Array>
          </mxGeometry>
        </mxCell>
        <mxCell id="Ib7XOItrtZM7JdyORI7V-399" style="edgeStyle=orthogonalEdgeStyle;rounded=0;orthogonalLoop=1;jettySize=auto;html=1;endArrow=diamondThin;endFill=1;" edge="1" parent="1" source="Ib7XOItrtZM7JdyORI7V-328">
          <mxGeometry relative="1" as="geometry">
            <mxPoint x="2565" y="-580" as="targetPoint" />
          </mxGeometry>
        </mxCell>
        <mxCell id="Ib7XOItrtZM7JdyORI7V-328" value="TaskSimulatorsViewModel" style="swimlane;fontStyle=2;align=center;verticalAlign=top;childLayout=stackLayout;horizontal=1;startSize=26;horizontalStack=0;resizeParent=1;resizeLast=0;collapsible=1;marginBottom=0;rounded=0;shadow=0;strokeWidth=1;" vertex="1" parent="1">
          <mxGeometry x="2390" y="-540" width="350" height="350" as="geometry">
            <mxRectangle x="220" y="120" width="160" height="26" as="alternateBounds" />
          </mxGeometry>
        </mxCell>
        <mxCell id="Ib7XOItrtZM7JdyORI7V-329" value="- theory: string" style="text;strokeColor=none;fillColor=none;align=left;verticalAlign=top;spacingLeft=4;spacingRight=4;overflow=hidden;rotatable=0;points=[[0,0.5],[1,0.5]];portConstraint=eastwest;whiteSpace=wrap;html=1;" vertex="1" parent="Ib7XOItrtZM7JdyORI7V-328">
          <mxGeometry y="26" width="350" height="26" as="geometry" />
        </mxCell>
        <mxCell id="Ib7XOItrtZM7JdyORI7V-339" value="- simulatorName:&amp;nbsp;string" style="text;strokeColor=none;fillColor=none;align=left;verticalAlign=top;spacingLeft=4;spacingRight=4;overflow=hidden;rotatable=0;points=[[0,0.5],[1,0.5]];portConstraint=eastwest;whiteSpace=wrap;html=1;" vertex="1" parent="Ib7XOItrtZM7JdyORI7V-328">
          <mxGeometry y="52" width="350" height="26" as="geometry" />
        </mxCell>
        <mxCell id="Ib7XOItrtZM7JdyORI7V-336" value="- answer: int" style="text;strokeColor=none;fillColor=none;align=left;verticalAlign=top;spacingLeft=4;spacingRight=4;overflow=hidden;rotatable=0;points=[[0,0.5],[1,0.5]];portConstraint=eastwest;whiteSpace=wrap;html=1;" vertex="1" parent="Ib7XOItrtZM7JdyORI7V-328">
          <mxGeometry y="78" width="350" height="26" as="geometry" />
        </mxCell>
        <mxCell id="Ib7XOItrtZM7JdyORI7V-330" value="- message:&amp;nbsp;string" style="text;strokeColor=none;fillColor=none;align=left;verticalAlign=top;spacingLeft=4;spacingRight=4;overflow=hidden;rotatable=0;points=[[0,0.5],[1,0.5]];portConstraint=eastwest;whiteSpace=wrap;html=1;" vertex="1" parent="Ib7XOItrtZM7JdyORI7V-328">
          <mxGeometry y="104" width="350" height="26" as="geometry" />
        </mxCell>
        <mxCell id="Ib7XOItrtZM7JdyORI7V-331" value="" style="line;html=1;strokeWidth=1;align=left;verticalAlign=middle;spacingTop=-1;spacingLeft=3;spacingRight=3;rotatable=0;labelPosition=right;points=[];portConstraint=eastwest;" vertex="1" parent="Ib7XOItrtZM7JdyORI7V-328">
          <mxGeometry y="130" width="350" height="8" as="geometry" />
        </mxCell>
        <mxCell id="Ib7XOItrtZM7JdyORI7V-332" value="+ Theory(): string&#xa;+ Theory(value: string): void" style="text;align=left;verticalAlign=top;spacingLeft=4;spacingRight=4;overflow=hidden;rotatable=0;points=[[0,0.5],[1,0.5]];portConstraint=eastwest;" vertex="1" parent="Ib7XOItrtZM7JdyORI7V-328">
          <mxGeometry y="138" width="350" height="40" as="geometry" />
        </mxCell>
        <mxCell id="Ib7XOItrtZM7JdyORI7V-333" value="+ SimulatorName(): string&#xa;+ SimulatorName(value: string): void" style="text;align=left;verticalAlign=top;spacingLeft=4;spacingRight=4;overflow=hidden;rotatable=0;points=[[0,0.5],[1,0.5]];portConstraint=eastwest;" vertex="1" parent="Ib7XOItrtZM7JdyORI7V-328">
          <mxGeometry y="178" width="350" height="40" as="geometry" />
        </mxCell>
        <mxCell id="Ib7XOItrtZM7JdyORI7V-340" value="+ Answer(): int&#xa;+ Answer(value: int): void" style="text;align=left;verticalAlign=top;spacingLeft=4;spacingRight=4;overflow=hidden;rotatable=0;points=[[0,0.5],[1,0.5]];portConstraint=eastwest;" vertex="1" parent="Ib7XOItrtZM7JdyORI7V-328">
          <mxGeometry y="218" width="350" height="40" as="geometry" />
        </mxCell>
        <mxCell id="Ib7XOItrtZM7JdyORI7V-341" value="+ Message(): string&#xa;+ Message(value: string): void" style="text;align=left;verticalAlign=top;spacingLeft=4;spacingRight=4;overflow=hidden;rotatable=0;points=[[0,0.5],[1,0.5]];portConstraint=eastwest;" vertex="1" parent="Ib7XOItrtZM7JdyORI7V-328">
          <mxGeometry y="258" width="350" height="40" as="geometry" />
        </mxCell>
        <mxCell id="Ib7XOItrtZM7JdyORI7V-334" value="+ GetTask(numberNeedTask: int): void" style="text;align=left;verticalAlign=top;spacingLeft=4;spacingRight=4;overflow=hidden;rotatable=0;points=[[0,0.5],[1,0.5]];portConstraint=eastwest;" vertex="1" parent="Ib7XOItrtZM7JdyORI7V-328">
          <mxGeometry y="298" width="350" height="26" as="geometry" />
        </mxCell>
        <mxCell id="Ib7XOItrtZM7JdyORI7V-335" value="+ ClickAnswer(): void" style="text;align=left;verticalAlign=top;spacingLeft=4;spacingRight=4;overflow=hidden;rotatable=0;points=[[0,0.5],[1,0.5]];portConstraint=eastwest;" vertex="1" parent="Ib7XOItrtZM7JdyORI7V-328">
          <mxGeometry y="324" width="350" height="26" as="geometry" />
        </mxCell>
        <mxCell id="Ib7XOItrtZM7JdyORI7V-363" style="edgeStyle=orthogonalEdgeStyle;rounded=0;orthogonalLoop=1;jettySize=auto;html=1;endArrow=none;endFill=0;" edge="1" parent="1" source="Ib7XOItrtZM7JdyORI7V-343">
          <mxGeometry relative="1" as="geometry">
            <mxPoint x="2120" y="-1250" as="targetPoint" />
            <Array as="points">
              <mxPoint x="2565" y="-1250" />
            </Array>
          </mxGeometry>
        </mxCell>
        <mxCell id="Ib7XOItrtZM7JdyORI7V-343" value="UserAccountViewModel" style="swimlane;fontStyle=2;align=center;verticalAlign=top;childLayout=stackLayout;horizontal=1;startSize=26;horizontalStack=0;resizeParent=1;resizeLast=0;collapsible=1;marginBottom=0;rounded=0;shadow=0;strokeWidth=1;" vertex="1" parent="1">
          <mxGeometry x="2390" y="-1230" width="350" height="402" as="geometry">
            <mxRectangle x="220" y="120" width="160" height="26" as="alternateBounds" />
          </mxGeometry>
        </mxCell>
        <mxCell id="Ib7XOItrtZM7JdyORI7V-344" value="- fullName: string" style="text;strokeColor=none;fillColor=none;align=left;verticalAlign=top;spacingLeft=4;spacingRight=4;overflow=hidden;rotatable=0;points=[[0,0.5],[1,0.5]];portConstraint=eastwest;whiteSpace=wrap;html=1;" vertex="1" parent="Ib7XOItrtZM7JdyORI7V-343">
          <mxGeometry y="26" width="350" height="26" as="geometry" />
        </mxCell>
        <mxCell id="Ib7XOItrtZM7JdyORI7V-345" value="- login:&amp;nbsp;string" style="text;strokeColor=none;fillColor=none;align=left;verticalAlign=top;spacingLeft=4;spacingRight=4;overflow=hidden;rotatable=0;points=[[0,0.5],[1,0.5]];portConstraint=eastwest;whiteSpace=wrap;html=1;" vertex="1" parent="Ib7XOItrtZM7JdyORI7V-343">
          <mxGeometry y="52" width="350" height="26" as="geometry" />
        </mxCell>
        <mxCell id="Ib7XOItrtZM7JdyORI7V-346" value="- phoneNum: int" style="text;strokeColor=none;fillColor=none;align=left;verticalAlign=top;spacingLeft=4;spacingRight=4;overflow=hidden;rotatable=0;points=[[0,0.5],[1,0.5]];portConstraint=eastwest;whiteSpace=wrap;html=1;" vertex="1" parent="Ib7XOItrtZM7JdyORI7V-343">
          <mxGeometry y="78" width="350" height="26" as="geometry" />
        </mxCell>
        <mxCell id="Ib7XOItrtZM7JdyORI7V-347" value="- email:&amp;nbsp;string" style="text;strokeColor=none;fillColor=none;align=left;verticalAlign=top;spacingLeft=4;spacingRight=4;overflow=hidden;rotatable=0;points=[[0,0.5],[1,0.5]];portConstraint=eastwest;whiteSpace=wrap;html=1;" vertex="1" parent="Ib7XOItrtZM7JdyORI7V-343">
          <mxGeometry y="104" width="350" height="26" as="geometry" />
        </mxCell>
        <mxCell id="Ib7XOItrtZM7JdyORI7V-348" value="" style="line;html=1;strokeWidth=1;align=left;verticalAlign=middle;spacingTop=-1;spacingLeft=3;spacingRight=3;rotatable=0;labelPosition=right;points=[];portConstraint=eastwest;" vertex="1" parent="Ib7XOItrtZM7JdyORI7V-343">
          <mxGeometry y="130" width="350" height="8" as="geometry" />
        </mxCell>
        <mxCell id="Ib7XOItrtZM7JdyORI7V-349" value="+ FullName(): string&#xa;+ FullName(value: string): void" style="text;align=left;verticalAlign=top;spacingLeft=4;spacingRight=4;overflow=hidden;rotatable=0;points=[[0,0.5],[1,0.5]];portConstraint=eastwest;" vertex="1" parent="Ib7XOItrtZM7JdyORI7V-343">
          <mxGeometry y="138" width="350" height="40" as="geometry" />
        </mxCell>
        <mxCell id="Ib7XOItrtZM7JdyORI7V-350" value="+ PhoneNum(): string&#xa;+ PhoneNum(value: string): void" style="text;align=left;verticalAlign=top;spacingLeft=4;spacingRight=4;overflow=hidden;rotatable=0;points=[[0,0.5],[1,0.5]];portConstraint=eastwest;" vertex="1" parent="Ib7XOItrtZM7JdyORI7V-343">
          <mxGeometry y="178" width="350" height="40" as="geometry" />
        </mxCell>
        <mxCell id="Ib7XOItrtZM7JdyORI7V-352" value="+ Login(): string&#xa;+ Login(value: string): void" style="text;align=left;verticalAlign=top;spacingLeft=4;spacingRight=4;overflow=hidden;rotatable=0;points=[[0,0.5],[1,0.5]];portConstraint=eastwest;" vertex="1" parent="Ib7XOItrtZM7JdyORI7V-343">
          <mxGeometry y="218" width="350" height="40" as="geometry" />
        </mxCell>
        <mxCell id="Ib7XOItrtZM7JdyORI7V-355" value="+ Email(): string&#xa;+ Email(value: string): void" style="text;align=left;verticalAlign=top;spacingLeft=4;spacingRight=4;overflow=hidden;rotatable=0;points=[[0,0.5],[1,0.5]];portConstraint=eastwest;" vertex="1" parent="Ib7XOItrtZM7JdyORI7V-343">
          <mxGeometry y="258" width="350" height="40" as="geometry" />
        </mxCell>
        <mxCell id="Ib7XOItrtZM7JdyORI7V-354" value="+ GetUserAccount(): void" style="text;align=left;verticalAlign=top;spacingLeft=4;spacingRight=4;overflow=hidden;rotatable=0;points=[[0,0.5],[1,0.5]];portConstraint=eastwest;" vertex="1" parent="Ib7XOItrtZM7JdyORI7V-343">
          <mxGeometry y="298" width="350" height="26" as="geometry" />
        </mxCell>
        <mxCell id="Ib7XOItrtZM7JdyORI7V-356" value="+ SaveUserAccount(): void" style="text;align=left;verticalAlign=top;spacingLeft=4;spacingRight=4;overflow=hidden;rotatable=0;points=[[0,0.5],[1,0.5]];portConstraint=eastwest;" vertex="1" parent="Ib7XOItrtZM7JdyORI7V-343">
          <mxGeometry y="324" width="350" height="26" as="geometry" />
        </mxCell>
        <mxCell id="Ib7XOItrtZM7JdyORI7V-357" value="+ LogOut(): void" style="text;align=left;verticalAlign=top;spacingLeft=4;spacingRight=4;overflow=hidden;rotatable=0;points=[[0,0.5],[1,0.5]];portConstraint=eastwest;" vertex="1" parent="Ib7XOItrtZM7JdyORI7V-343">
          <mxGeometry y="350" width="350" height="26" as="geometry" />
        </mxCell>
        <mxCell id="Ib7XOItrtZM7JdyORI7V-358" value="- IsTrueData(): bool" style="text;align=left;verticalAlign=top;spacingLeft=4;spacingRight=4;overflow=hidden;rotatable=0;points=[[0,0.5],[1,0.5]];portConstraint=eastwest;" vertex="1" parent="Ib7XOItrtZM7JdyORI7V-343">
          <mxGeometry y="376" width="350" height="26" as="geometry" />
        </mxCell>
        <mxCell id="Ib7XOItrtZM7JdyORI7V-359" style="edgeStyle=orthogonalEdgeStyle;rounded=0;orthogonalLoop=1;jettySize=auto;html=1;entryX=0.998;entryY=0.671;entryDx=0;entryDy=0;entryPerimeter=0;" edge="1" parent="1" source="Ib7XOItrtZM7JdyORI7V-161" target="Ib7XOItrtZM7JdyORI7V-142">
          <mxGeometry relative="1" as="geometry" />
        </mxCell>
        <mxCell id="Ib7XOItrtZM7JdyORI7V-360" style="edgeStyle=orthogonalEdgeStyle;rounded=0;orthogonalLoop=1;jettySize=auto;html=1;exitX=0;exitY=0.5;exitDx=0;exitDy=0;entryX=1.007;entryY=0.067;entryDx=0;entryDy=0;entryPerimeter=0;" edge="1" parent="1" source="Ib7XOItrtZM7JdyORI7V-191" target="Ib7XOItrtZM7JdyORI7V-143">
          <mxGeometry relative="1" as="geometry" />
        </mxCell>
        <mxCell id="Ib7XOItrtZM7JdyORI7V-373" style="edgeStyle=orthogonalEdgeStyle;rounded=0;orthogonalLoop=1;jettySize=auto;html=1;exitX=0.5;exitY=0;exitDx=0;exitDy=0;entryX=0.492;entryY=1.038;entryDx=0;entryDy=0;entryPerimeter=0;endArrow=none;endFill=0;" edge="1" parent="1" source="Ib7XOItrtZM7JdyORI7V-1" target="Ib7XOItrtZM7JdyORI7V-133">
          <mxGeometry relative="1" as="geometry">
            <Array as="points">
              <mxPoint x="570" y="-580" />
              <mxPoint x="570" y="-839" />
            </Array>
          </mxGeometry>
        </mxCell>
        <mxCell id="Ib7XOItrtZM7JdyORI7V-374" value="AuthorizationView" style="swimlane;fontStyle=2;align=center;verticalAlign=top;childLayout=stackLayout;horizontal=1;startSize=26;horizontalStack=0;resizeParent=1;resizeLast=0;collapsible=1;marginBottom=0;rounded=0;shadow=0;strokeWidth=1;" vertex="1" parent="1">
          <mxGeometry x="1630" y="-1090" width="180" height="40" as="geometry">
            <mxRectangle x="220" y="120" width="160" height="26" as="alternateBounds" />
          </mxGeometry>
        </mxCell>
        <mxCell id="Ib7XOItrtZM7JdyORI7V-381" value="" style="line;html=1;strokeWidth=1;align=left;verticalAlign=middle;spacingTop=-1;spacingLeft=3;spacingRight=3;rotatable=0;labelPosition=right;points=[];portConstraint=eastwest;" vertex="1" parent="Ib7XOItrtZM7JdyORI7V-374">
          <mxGeometry y="26" width="180" height="8" as="geometry" />
        </mxCell>
        <mxCell id="Ib7XOItrtZM7JdyORI7V-382" style="edgeStyle=orthogonalEdgeStyle;rounded=0;orthogonalLoop=1;jettySize=auto;html=1;exitX=1;exitY=0.5;exitDx=0;exitDy=0;entryX=0;entryY=0.5;entryDx=0;entryDy=0;endArrow=diamondThin;endFill=1;" edge="1" parent="1" source="Ib7XOItrtZM7JdyORI7V-172" target="Ib7XOItrtZM7JdyORI7V-374">
          <mxGeometry relative="1" as="geometry" />
        </mxCell>
        <mxCell id="Ib7XOItrtZM7JdyORI7V-383" value="CreateSimulatorView" style="swimlane;fontStyle=2;align=center;verticalAlign=top;childLayout=stackLayout;horizontal=1;startSize=26;horizontalStack=0;resizeParent=1;resizeLast=0;collapsible=1;marginBottom=0;rounded=0;shadow=0;strokeWidth=1;" vertex="1" parent="1">
          <mxGeometry x="1630" y="-1040" width="180" height="40" as="geometry">
            <mxRectangle x="220" y="120" width="160" height="26" as="alternateBounds" />
          </mxGeometry>
        </mxCell>
        <mxCell id="Ib7XOItrtZM7JdyORI7V-384" value="" style="line;html=1;strokeWidth=1;align=left;verticalAlign=middle;spacingTop=-1;spacingLeft=3;spacingRight=3;rotatable=0;labelPosition=right;points=[];portConstraint=eastwest;" vertex="1" parent="Ib7XOItrtZM7JdyORI7V-383">
          <mxGeometry y="26" width="180" height="8" as="geometry" />
        </mxCell>
        <mxCell id="Ib7XOItrtZM7JdyORI7V-385" value="SimulatorsView" style="swimlane;fontStyle=2;align=center;verticalAlign=top;childLayout=stackLayout;horizontal=1;startSize=26;horizontalStack=0;resizeParent=1;resizeLast=0;collapsible=1;marginBottom=0;rounded=0;shadow=0;strokeWidth=1;" vertex="1" parent="1">
          <mxGeometry x="1630" y="-990" width="180" height="40" as="geometry">
            <mxRectangle x="220" y="120" width="160" height="26" as="alternateBounds" />
          </mxGeometry>
        </mxCell>
        <mxCell id="Ib7XOItrtZM7JdyORI7V-386" value="" style="line;html=1;strokeWidth=1;align=left;verticalAlign=middle;spacingTop=-1;spacingLeft=3;spacingRight=3;rotatable=0;labelPosition=right;points=[];portConstraint=eastwest;" vertex="1" parent="Ib7XOItrtZM7JdyORI7V-385">
          <mxGeometry y="26" width="180" height="8" as="geometry" />
        </mxCell>
        <mxCell id="Ib7XOItrtZM7JdyORI7V-389" style="edgeStyle=orthogonalEdgeStyle;rounded=0;orthogonalLoop=1;jettySize=auto;html=1;exitX=1;exitY=0.5;exitDx=0;exitDy=0;entryX=0;entryY=0.5;entryDx=0;entryDy=0;endArrow=diamondThin;endFill=1;" edge="1" parent="1" source="Ib7XOItrtZM7JdyORI7V-191" target="Ib7XOItrtZM7JdyORI7V-383">
          <mxGeometry relative="1" as="geometry" />
        </mxCell>
        <mxCell id="Ib7XOItrtZM7JdyORI7V-390" value="RegistrationView" style="swimlane;fontStyle=2;align=center;verticalAlign=top;childLayout=stackLayout;horizontal=1;startSize=26;horizontalStack=0;resizeParent=1;resizeLast=0;collapsible=1;marginBottom=0;rounded=0;shadow=0;strokeWidth=1;" vertex="1" parent="1">
          <mxGeometry x="1630" y="-940" width="180" height="40" as="geometry">
            <mxRectangle x="220" y="120" width="160" height="26" as="alternateBounds" />
          </mxGeometry>
        </mxCell>
        <mxCell id="Ib7XOItrtZM7JdyORI7V-391" value="" style="line;html=1;strokeWidth=1;align=left;verticalAlign=middle;spacingTop=-1;spacingLeft=3;spacingRight=3;rotatable=0;labelPosition=right;points=[];portConstraint=eastwest;" vertex="1" parent="Ib7XOItrtZM7JdyORI7V-390">
          <mxGeometry y="26" width="180" height="8" as="geometry" />
        </mxCell>
        <mxCell id="Ib7XOItrtZM7JdyORI7V-393" style="edgeStyle=orthogonalEdgeStyle;rounded=0;orthogonalLoop=1;jettySize=auto;html=1;exitX=0;exitY=0.5;exitDx=0;exitDy=0;entryX=1;entryY=0.5;entryDx=0;entryDy=0;endArrow=diamondThin;endFill=1;" edge="1" parent="1" source="Ib7XOItrtZM7JdyORI7V-292" target="Ib7XOItrtZM7JdyORI7V-385">
          <mxGeometry relative="1" as="geometry" />
        </mxCell>
        <mxCell id="Ib7XOItrtZM7JdyORI7V-394" value="StatisticsView" style="swimlane;fontStyle=2;align=center;verticalAlign=top;childLayout=stackLayout;horizontal=1;startSize=26;horizontalStack=0;resizeParent=1;resizeLast=0;collapsible=1;marginBottom=0;rounded=0;shadow=0;strokeWidth=1;" vertex="1" parent="1">
          <mxGeometry x="2280" y="-620" width="180" height="40" as="geometry">
            <mxRectangle x="220" y="120" width="160" height="26" as="alternateBounds" />
          </mxGeometry>
        </mxCell>
        <mxCell id="Ib7XOItrtZM7JdyORI7V-395" value="" style="line;html=1;strokeWidth=1;align=left;verticalAlign=middle;spacingTop=-1;spacingLeft=3;spacingRight=3;rotatable=0;labelPosition=right;points=[];portConstraint=eastwest;" vertex="1" parent="Ib7XOItrtZM7JdyORI7V-394">
          <mxGeometry y="26" width="180" height="8" as="geometry" />
        </mxCell>
        <mxCell id="Ib7XOItrtZM7JdyORI7V-396" value="TaskSimulatorsView" style="swimlane;fontStyle=2;align=center;verticalAlign=top;childLayout=stackLayout;horizontal=1;startSize=26;horizontalStack=0;resizeParent=1;resizeLast=0;collapsible=1;marginBottom=0;rounded=0;shadow=0;strokeWidth=1;" vertex="1" parent="1">
          <mxGeometry x="2490" y="-620" width="180" height="40" as="geometry">
            <mxRectangle x="220" y="120" width="160" height="26" as="alternateBounds" />
          </mxGeometry>
        </mxCell>
        <mxCell id="Ib7XOItrtZM7JdyORI7V-397" value="" style="line;html=1;strokeWidth=1;align=left;verticalAlign=middle;spacingTop=-1;spacingLeft=3;spacingRight=3;rotatable=0;labelPosition=right;points=[];portConstraint=eastwest;" vertex="1" parent="Ib7XOItrtZM7JdyORI7V-396">
          <mxGeometry y="26" width="180" height="8" as="geometry" />
        </mxCell>
        <mxCell id="Ib7XOItrtZM7JdyORI7V-400" value="TaskSimulatorsView" style="swimlane;fontStyle=2;align=center;verticalAlign=top;childLayout=stackLayout;horizontal=1;startSize=26;horizontalStack=0;resizeParent=1;resizeLast=0;collapsible=1;marginBottom=0;rounded=0;shadow=0;strokeWidth=1;" vertex="1" parent="1">
          <mxGeometry x="2490" y="-770" width="180" height="40" as="geometry">
            <mxRectangle x="220" y="120" width="160" height="26" as="alternateBounds" />
          </mxGeometry>
        </mxCell>
        <mxCell id="Ib7XOItrtZM7JdyORI7V-401" value="" style="line;html=1;strokeWidth=1;align=left;verticalAlign=middle;spacingTop=-1;spacingLeft=3;spacingRight=3;rotatable=0;labelPosition=right;points=[];portConstraint=eastwest;" vertex="1" parent="Ib7XOItrtZM7JdyORI7V-400">
          <mxGeometry y="26" width="180" height="8" as="geometry" />
        </mxCell>
        <mxCell id="Ib7XOItrtZM7JdyORI7V-402" style="edgeStyle=orthogonalEdgeStyle;rounded=0;orthogonalLoop=1;jettySize=auto;html=1;entryX=0.417;entryY=0;entryDx=0;entryDy=0;entryPerimeter=0;endArrow=diamondThin;endFill=1;" edge="1" parent="1" source="Ib7XOItrtZM7JdyORI7V-343" target="Ib7XOItrtZM7JdyORI7V-400">
          <mxGeometry relative="1" as="geometry" />
        </mxCell>
      </root>
    </mxGraphModel>
  </diagram>
</mxfile>
